<svg xmlns="http://www.w3.org/2000/svg" width="261.922" height="301.139" viewBox="0 0 261.922 301.139">
  <g id="Layer_2" data-name="Layer 2" transform="translate(0.02 0.003)">
    <g id="Layer_1" data-name="Layer 1" transform="translate(-0.02 -0.003)">
      <path id="Path_3" data-name="Path 3" d="M167.625,336.263l6.981,4.031,6.985,4.031,29.687,17.139c3.841,2.217,3.841,5.845,0,8.062l-29.687,17.143-6.985,4.031-6.981,4.031-29.687,17.139a15.488,15.488,0,0,1-13.963,0L94.285,394.73,87.3,390.7l-6.981-4.031L50.635,369.525a15.485,15.485,0,0,1-6.981-12.092V323.151c0-4.434-3.144-6.248-6.981-4.031L6.981,336.263A15.485,15.485,0,0,0,0,348.356v34.282A15.485,15.485,0,0,0,6.981,394.73l29.7,17.139,13.963,8.062L80.33,437.074l6.981,4.031,6.981,4.031,29.691,17.139a15.488,15.488,0,0,0,13.963,0l29.687-17.139,6.981-4.031h0l6.985-4.031,29.687-17.143,13.963-8.062,29.691-17.139a15.5,15.5,0,0,0,6.981-12.092V348.356a15.5,15.5,0,0,0-6.981-12.092l-29.7-17.143-13.963-8.062-29.687-17.139-6.985-4.031-6.981-4.031-11.1-6.409c-3.837-2.217-6.981-.4-6.981,4.031v34.262a15.5,15.5,0,0,0,6.981,12.092Z" transform="translate(0 -162.798)" fill="#fff"/>
      <path id="Path_4" data-name="Path 4" d="M254.933,127.675a15.5,15.5,0,0,0,6.981-12.092V81.3a15.5,15.5,0,0,0-6.981-12.092L225.242,52.065,211.279,44,181.592,26.864l-6.981-4.031L167.625,18.8,137.938,1.663a15.463,15.463,0,0,0-13.963,0L94.285,18.8,87.3,22.833h0l-6.981,4.031L50.635,44,36.68,52.065,6.981,69.208A15.485,15.485,0,0,0,0,81.3v34.282a15.485,15.485,0,0,0,6.981,12.092l29.7,17.139,13.963,8.062L80.33,170.018l6.981,4.031,6.981,4.031,11.1,6.409c3.837,2.217,6.981.4,6.981-4.031V146.176a15.5,15.5,0,0,0-6.981-12.092l-11.1-6.409-6.981-4.031-6.981-4.031L50.643,102.47c-3.841-2.217-3.841-5.845,0-8.062L80.33,77.269l6.981-4.031,6.981-4.031,29.691-17.143a15.488,15.488,0,0,1,13.963,0l29.687,17.143,6.985,4.031,6.981,4.031,29.687,17.139a15.485,15.485,0,0,1,6.981,12.092v34.262c0,4.434,3.144,6.248,6.981,4.031Z" transform="translate(0.008 0.003)" fill="#fff"/>
    </g>
  </g>
</svg>
