<svg xmlns="http://www.w3.org/2000/svg" xmlns:xlink="http://www.w3.org/1999/xlink" width="1000" height="1210" viewBox="0 0 1000 1210">
  <defs>
    <linearGradient id="linear-gradient" x2="1" y2="1" gradientUnits="objectBoundingBox">
      <stop offset="0" stop-color="#33fb9e"/>
      <stop offset="1" stop-color="#007840"/>
    </linearGradient>
    <filter id="body" x="540.914" y="393.501" width="1074.098" height="1250.671" filterUnits="userSpaceOnUse">
      <feOffset input="SourceAlpha"/>
      <feGaussianBlur stdDeviation="30" result="blur"/>
      <feFlood flood-opacity="0.078"/>
      <feComposite operator="in" in2="blur"/>
      <feComposite in="SourceGraphic"/>
    </filter>
    <filter id="body-2" x="282.914" y="-292.5" width="1074.098" height="1250.671" filterUnits="userSpaceOnUse">
      <feOffset input="SourceAlpha"/>
      <feGaussianBlur stdDeviation="30" result="blur-2"/>
      <feFlood flood-opacity="0.078"/>
      <feComposite operator="in" in2="blur-2"/>
      <feComposite in="SourceGraphic"/>
    </filter>
    <filter id="body-3" x="-251.086" y="615.501" width="1074.098" height="1250.671" filterUnits="userSpaceOnUse">
      <feOffset input="SourceAlpha"/>
      <feGaussianBlur stdDeviation="30" result="blur-3"/>
      <feFlood flood-opacity="0.078"/>
      <feComposite operator="in" in2="blur-3"/>
      <feComposite in="SourceGraphic"/>
    </filter>
    <filter id="body-4" x="-425.085" y="-199.5" width="1074.098" height="1250.671" filterUnits="userSpaceOnUse">
      <feOffset input="SourceAlpha"/>
      <feGaussianBlur stdDeviation="30" result="blur-4"/>
      <feFlood flood-opacity="0.078"/>
      <feComposite operator="in" in2="blur-4"/>
      <feComposite in="SourceGraphic"/>
    </filter>
    <filter id="body-5" x="-944.085" y="693.501" width="1074.098" height="1250.671" filterUnits="userSpaceOnUse">
      <feOffset input="SourceAlpha"/>
      <feGaussianBlur stdDeviation="30" result="blur-5"/>
      <feFlood flood-opacity="0.078"/>
      <feComposite operator="in" in2="blur-5"/>
      <feComposite in="SourceGraphic"/>
    </filter>
    <clipPath id="clip-happygreen-thumb-thin">
      <rect width="1000" height="1210"/>
    </clipPath>
  </defs>
  <g id="happygreen-thumb-thin" clip-path="url(#clip-happygreen-thumb-thin)">
    <rect width="1000" height="1210" fill="url(#linear-gradient)"/>
    <g id="Group_1140" data-name="Group 1140" transform="translate(164.245 526.442)">
      <ellipse id="Ellipse_21" data-name="Ellipse 21" cx="462" cy="461" rx="462" ry="461" transform="translate(-789.245 103.559)" fill="#fff" opacity="0.1"/>
      <circle id="Ellipse_22" data-name="Ellipse 22" cx="279" cy="279" r="279" transform="translate(613.755 -620.441)" fill="#fff" opacity="0.1"/>
      <g id="Group_2" data-name="Group 2" transform="translate(354.115 448.388)" opacity="0.1">
        <circle id="Ellipse_4" data-name="Ellipse 4" cx="9.5" cy="9.5" r="9.5" transform="translate(-0.361 139.171)" fill="#fff"/>
        <circle id="Ellipse_5" data-name="Ellipse 5" cx="9.5" cy="9.5" r="9.5" transform="translate(46.639 139.171)" fill="#fff"/>
        <circle id="Ellipse_6" data-name="Ellipse 6" cx="9.5" cy="9.5" r="9.5" transform="translate(92.639 139.171)" fill="#fff"/>
        <ellipse id="Ellipse_7" data-name="Ellipse 7" cx="8.5" cy="9.5" rx="8.5" ry="9.5" transform="translate(139.639 139.171)" fill="#fff"/>
        <circle id="Ellipse_8" data-name="Ellipse 8" cx="9.5" cy="9.5" r="9.5" transform="translate(-0.361 92.171)" fill="#fff"/>
        <circle id="Ellipse_9" data-name="Ellipse 9" cx="9.5" cy="9.5" r="9.5" transform="translate(46.639 92.171)" fill="#fff"/>
        <circle id="Ellipse_10" data-name="Ellipse 10" cx="9.5" cy="9.5" r="9.5" transform="translate(92.639 92.171)" fill="#fff"/>
        <ellipse id="Ellipse_11" data-name="Ellipse 11" cx="8.5" cy="9.5" rx="8.5" ry="9.5" transform="translate(139.639 92.171)" fill="#fff"/>
        <circle id="Ellipse_12" data-name="Ellipse 12" cx="9.5" cy="9.5" r="9.5" transform="translate(-0.361 47.171)" fill="#fff"/>
        <circle id="Ellipse_13" data-name="Ellipse 13" cx="9.5" cy="9.5" r="9.5" transform="translate(46.639 47.171)" fill="#fff"/>
        <circle id="Ellipse_14" data-name="Ellipse 14" cx="9.5" cy="9.5" r="9.5" transform="translate(92.639 47.171)" fill="#fff"/>
        <ellipse id="Ellipse_15" data-name="Ellipse 15" cx="8.5" cy="9.5" rx="8.5" ry="9.5" transform="translate(139.639 47.171)" fill="#fff"/>
        <circle id="Ellipse_16" data-name="Ellipse 16" cx="9.5" cy="9.5" r="9.5" transform="translate(-0.361 0.171)" fill="#fff"/>
        <circle id="Ellipse_17" data-name="Ellipse 17" cx="9.5" cy="9.5" r="9.5" transform="translate(46.639 0.171)" fill="#fff"/>
        <circle id="Ellipse_18" data-name="Ellipse 18" cx="9.5" cy="9.5" r="9.5" transform="translate(92.639 0.171)" fill="#fff"/>
        <ellipse id="Ellipse_19" data-name="Ellipse 19" cx="8.5" cy="9.5" rx="8.5" ry="9.5" transform="translate(139.639 0.171)" fill="#fff"/>
      </g>
      <g id="Group_7" data-name="Group 7" transform="translate(231.872 -487.888)" opacity="0.1">
        <circle id="Ellipse_4-2" data-name="Ellipse 4" cx="9.5" cy="9.5" r="9.5" transform="translate(-0.117 139.446)" fill="#fff"/>
        <circle id="Ellipse_5-2" data-name="Ellipse 5" cx="9.5" cy="9.5" r="9.5" transform="translate(46.883 139.446)" fill="#fff"/>
        <ellipse id="Ellipse_6-2" data-name="Ellipse 6" cx="9" cy="9.5" rx="9" ry="9.5" transform="translate(92.883 139.446)" fill="#fff"/>
        <ellipse id="Ellipse_7-2" data-name="Ellipse 7" cx="8.5" cy="9.5" rx="8.5" ry="9.5" transform="translate(139.883 139.446)" fill="#fff"/>
        <ellipse id="Ellipse_8-2" data-name="Ellipse 8" cx="9.5" cy="10" rx="9.5" ry="10" transform="translate(-0.117 92.446)" fill="#fff"/>
        <ellipse id="Ellipse_9-2" data-name="Ellipse 9" cx="9.5" cy="10" rx="9.5" ry="10" transform="translate(46.883 92.446)" fill="#fff"/>
        <ellipse id="Ellipse_10-2" data-name="Ellipse 10" cx="9" cy="10" rx="9" ry="10" transform="translate(92.883 92.446)" fill="#fff"/>
        <ellipse id="Ellipse_11-2" data-name="Ellipse 11" cx="8.5" cy="10" rx="8.5" ry="10" transform="translate(139.883 92.446)" fill="#fff"/>
        <ellipse id="Ellipse_12-2" data-name="Ellipse 12" cx="9.5" cy="9" rx="9.5" ry="9" transform="translate(-0.117 47.446)" fill="#fff"/>
        <ellipse id="Ellipse_13-2" data-name="Ellipse 13" cx="9.5" cy="9" rx="9.5" ry="9" transform="translate(46.883 47.446)" fill="#fff"/>
        <circle id="Ellipse_14-2" data-name="Ellipse 14" cx="9" cy="9" r="9" transform="translate(92.883 47.446)" fill="#fff"/>
        <ellipse id="Ellipse_15-2" data-name="Ellipse 15" cx="8.5" cy="9" rx="8.5" ry="9" transform="translate(139.883 47.446)" fill="#fff"/>
        <ellipse id="Ellipse_16-2" data-name="Ellipse 16" cx="9.5" cy="10" rx="9.5" ry="10" transform="translate(-0.117 0.446)" fill="#fff"/>
        <ellipse id="Ellipse_17-2" data-name="Ellipse 17" cx="9.5" cy="10" rx="9.5" ry="10" transform="translate(46.883 0.446)" fill="#fff"/>
        <ellipse id="Ellipse_18-2" data-name="Ellipse 18" cx="9" cy="10" rx="9" ry="10" transform="translate(92.883 0.446)" fill="#fff"/>
        <ellipse id="Ellipse_19-2" data-name="Ellipse 19" cx="8.5" cy="10" rx="8.5" ry="10" transform="translate(139.883 0.446)" fill="#fff"/>
      </g>
    </g>
    <g id="Group_1141" data-name="Group 1141" transform="translate(-522 187)">
      <g id="Group_8" data-name="Group 8">
        <circle id="Ellipse_21-2" data-name="Ellipse 21" cx="623" cy="623" r="623" transform="translate(-789 268)" fill="#fff" opacity="0.1"/>
        <circle id="Ellipse_22-2" data-name="Ellipse 22" cx="377" cy="377" r="377" transform="translate(1599 -370)" fill="#fff" opacity="0.1"/>
        <g id="Group_2-2" data-name="Group 2" transform="translate(754.88 735.396)" opacity="0.1">
          <circle id="Ellipse_4-3" data-name="Ellipse 4" cx="12.5" cy="12.5" r="12.5" transform="translate(0.12 187.603)" fill="#fff"/>
          <circle id="Ellipse_5-3" data-name="Ellipse 5" cx="12.5" cy="12.5" r="12.5" transform="translate(63.12 187.603)" fill="#fff"/>
          <circle id="Ellipse_6-3" data-name="Ellipse 6" cx="12.5" cy="12.5" r="12.5" transform="translate(125.12 187.603)" fill="#fff"/>
          <ellipse id="Ellipse_7-3" data-name="Ellipse 7" cx="12" cy="12.5" rx="12" ry="12.5" transform="translate(188.12 187.603)" fill="#fff"/>
          <ellipse id="Ellipse_8-3" data-name="Ellipse 8" cx="12.5" cy="13" rx="12.5" ry="13" transform="translate(0.12 124.603)" fill="#fff"/>
          <ellipse id="Ellipse_9-3" data-name="Ellipse 9" cx="12.5" cy="13" rx="12.5" ry="13" transform="translate(63.12 124.603)" fill="#fff"/>
          <ellipse id="Ellipse_10-3" data-name="Ellipse 10" cx="12.5" cy="13" rx="12.5" ry="13" transform="translate(125.12 124.603)" fill="#fff"/>
          <ellipse id="Ellipse_11-3" data-name="Ellipse 11" cx="12" cy="13" rx="12" ry="13" transform="translate(188.12 124.603)" fill="#fff"/>
          <circle id="Ellipse_12-3" data-name="Ellipse 12" cx="12.5" cy="12.5" r="12.5" transform="translate(0.12 62.603)" fill="#fff"/>
          <circle id="Ellipse_13-3" data-name="Ellipse 13" cx="12.5" cy="12.5" r="12.5" transform="translate(63.12 62.603)" fill="#fff"/>
          <circle id="Ellipse_14-3" data-name="Ellipse 14" cx="12.5" cy="12.5" r="12.5" transform="translate(125.12 62.603)" fill="#fff"/>
          <ellipse id="Ellipse_15-3" data-name="Ellipse 15" cx="12" cy="12.5" rx="12" ry="12.5" transform="translate(188.12 62.603)" fill="#fff"/>
          <ellipse id="Ellipse_16-3" data-name="Ellipse 16" cx="12.5" cy="13" rx="12.5" ry="13" transform="translate(0.12 -0.397)" fill="#fff"/>
          <ellipse id="Ellipse_17-3" data-name="Ellipse 17" cx="12.5" cy="13" rx="12.5" ry="13" transform="translate(63.12 -0.397)" fill="#fff"/>
          <ellipse id="Ellipse_18-3" data-name="Ellipse 18" cx="12.5" cy="13" rx="12.5" ry="13" transform="translate(125.12 -0.397)" fill="#fff"/>
          <ellipse id="Ellipse_19-3" data-name="Ellipse 19" cx="12" cy="13" rx="12" ry="13" transform="translate(188.12 -0.397)" fill="#fff"/>
        </g>
        <g id="Group_7-2" data-name="Group 7" transform="translate(1721.88 928.396)" opacity="0.1">
          <circle id="Ellipse_4-4" data-name="Ellipse 4" cx="12.5" cy="12.5" r="12.5" transform="translate(0.12 187.603)" fill="#fff"/>
          <circle id="Ellipse_5-4" data-name="Ellipse 5" cx="12.5" cy="12.5" r="12.5" transform="translate(63.12 187.603)" fill="#fff"/>
          <circle id="Ellipse_6-4" data-name="Ellipse 6" cx="12.5" cy="12.5" r="12.5" transform="translate(125.12 187.603)" fill="#fff"/>
          <ellipse id="Ellipse_7-4" data-name="Ellipse 7" cx="12" cy="12.5" rx="12" ry="12.5" transform="translate(188.12 187.603)" fill="#fff"/>
          <ellipse id="Ellipse_8-4" data-name="Ellipse 8" cx="12.5" cy="13" rx="12.5" ry="13" transform="translate(0.12 124.603)" fill="#fff"/>
          <ellipse id="Ellipse_9-4" data-name="Ellipse 9" cx="12.5" cy="13" rx="12.5" ry="13" transform="translate(63.12 124.603)" fill="#fff"/>
          <ellipse id="Ellipse_10-4" data-name="Ellipse 10" cx="12.5" cy="13" rx="12.5" ry="13" transform="translate(125.12 124.603)" fill="#fff"/>
          <ellipse id="Ellipse_11-4" data-name="Ellipse 11" cx="12" cy="13" rx="12" ry="13" transform="translate(188.12 124.603)" fill="#fff"/>
          <circle id="Ellipse_12-4" data-name="Ellipse 12" cx="12.5" cy="12.5" r="12.5" transform="translate(0.12 62.603)" fill="#fff"/>
          <circle id="Ellipse_13-4" data-name="Ellipse 13" cx="12.5" cy="12.5" r="12.5" transform="translate(63.12 62.603)" fill="#fff"/>
          <circle id="Ellipse_14-4" data-name="Ellipse 14" cx="12.5" cy="12.5" r="12.5" transform="translate(125.12 62.603)" fill="#fff"/>
          <ellipse id="Ellipse_15-4" data-name="Ellipse 15" cx="12" cy="12.5" rx="12" ry="12.5" transform="translate(188.12 62.603)" fill="#fff"/>
          <ellipse id="Ellipse_16-4" data-name="Ellipse 16" cx="12.5" cy="13" rx="12.5" ry="13" transform="translate(0.12 -0.397)" fill="#fff"/>
          <ellipse id="Ellipse_17-4" data-name="Ellipse 17" cx="12.5" cy="13" rx="12.5" ry="13" transform="translate(63.12 -0.397)" fill="#fff"/>
          <ellipse id="Ellipse_18-4" data-name="Ellipse 18" cx="12.5" cy="13" rx="12.5" ry="13" transform="translate(125.12 -0.397)" fill="#fff"/>
          <ellipse id="Ellipse_19-4" data-name="Ellipse 19" cx="12" cy="13" rx="12" ry="13" transform="translate(188.12 -0.397)" fill="#fff"/>
        </g>
      </g>
      <g id="white-mockup" transform="translate(1633.094 296.501) rotate(30)">
        <g id="phone" transform="translate(0)">
          <g transform="matrix(0.87, -0.5, 0.5, 0.87, -1203.99, 136.82)" filter="url(#body)">
            <path id="body-6" data-name="body" d="M71.3-24.641A66.846,66.846,0,0,1,4.456-91.486V-630.714A4.457,4.457,0,0,1,0-635.171v-60.162a4.456,4.456,0,0,1,4.456-4.456v-17.826A4.456,4.456,0,0,1,0-722.071v-60.162a4.457,4.457,0,0,1,4.456-4.457v-33.423A4.456,4.456,0,0,1,0-824.568v-26.739a4.457,4.457,0,0,1,4.456-4.457v-62.39A66.846,66.846,0,0,1,71.3-985H406.649a66.845,66.845,0,0,1,66.846,66.846v154.861a4.457,4.457,0,0,1,4.457,4.456v100.27a4.457,4.457,0,0,1-4.457,4.457V-91.486a66.845,66.845,0,0,1-66.846,66.846Z" transform="translate(618.59 1336.54) rotate(30)" fill="#fff"/>
          </g>
          <path id="camera" d="M121.645-959.316A6.683,6.683,0,0,1,128.329-966a6.684,6.684,0,0,1,6.685,6.684,6.685,6.685,0,0,1-6.685,6.685A6.684,6.684,0,0,1,121.645-959.316Zm-71.3,3.343A3.344,3.344,0,0,1,47-959.316a3.342,3.342,0,0,1,3.343-3.342h52.363a3.342,3.342,0,0,1,3.342,3.342,3.343,3.343,0,0,1-3.342,3.343Z" transform="translate(162.452 997.195)" fill="#eeeef2"/>
        </g>
      </g>
      <g id="white-mockup-2" data-name="white-mockup" transform="translate(1375.094 -389.5) rotate(30)">
        <g id="phone-2" data-name="phone" transform="translate(0)">
          <g transform="matrix(0.87, -0.5, 0.5, 0.87, -637.55, 601.92)" filter="url(#body-2)">
            <path id="body-7" data-name="body" d="M71.3-24.641A66.846,66.846,0,0,1,4.456-91.486V-630.714A4.457,4.457,0,0,1,0-635.171v-60.162a4.456,4.456,0,0,1,4.456-4.456v-17.826A4.456,4.456,0,0,1,0-722.071v-60.162a4.457,4.457,0,0,1,4.456-4.457v-33.423A4.456,4.456,0,0,1,0-824.568v-26.739a4.457,4.457,0,0,1,4.456-4.457v-62.39A66.846,66.846,0,0,1,71.3-985H406.649a66.845,66.845,0,0,1,66.846,66.846v154.861a4.457,4.457,0,0,1,4.457,4.456v100.27a4.457,4.457,0,0,1-4.457,4.457V-91.486a66.845,66.845,0,0,1-66.846,66.846Z" transform="translate(360.59 650.53) rotate(30)" fill="#fff"/>
          </g>
          <path id="camera-2" data-name="camera" d="M121.645-959.316A6.683,6.683,0,0,1,128.329-966a6.684,6.684,0,0,1,6.685,6.684,6.685,6.685,0,0,1-6.685,6.685A6.684,6.684,0,0,1,121.645-959.316Zm-71.3,3.343A3.344,3.344,0,0,1,47-959.316a3.342,3.342,0,0,1,3.343-3.342h52.363a3.342,3.342,0,0,1,3.342,3.342,3.343,3.343,0,0,1-3.342,3.343Z" transform="translate(162.452 997.195)" fill="#eeeef2"/>
        </g>
      </g>
      <g id="white-mockup-3" data-name="white-mockup" transform="translate(841.094 518.5) rotate(30)">
        <g id="phone-3" data-name="phone" transform="translate(0)">
          <g transform="matrix(0.87, -0.5, 0.5, 0.87, -629.09, -451.43)" filter="url(#body-3)">
            <path id="body-8" data-name="body" d="M71.3-24.641A66.846,66.846,0,0,1,4.456-91.486V-630.714A4.457,4.457,0,0,1,0-635.171v-60.162a4.456,4.456,0,0,1,4.456-4.456v-17.826A4.456,4.456,0,0,1,0-722.071v-60.162a4.457,4.457,0,0,1,4.456-4.457v-33.423A4.456,4.456,0,0,1,0-824.568v-26.739a4.457,4.457,0,0,1,4.456-4.457v-62.39A66.846,66.846,0,0,1,71.3-985H406.649a66.845,66.845,0,0,1,66.846,66.846v154.861a4.457,4.457,0,0,1,4.457,4.456v100.27a4.457,4.457,0,0,1-4.457,4.457V-91.486a66.845,66.845,0,0,1-66.846,66.846Z" transform="translate(-173.41 1558.53) rotate(30)" fill="#fff"/>
          </g>
          <path id="camera-3" data-name="camera" d="M121.645-959.316A6.683,6.683,0,0,1,128.329-966a6.684,6.684,0,0,1,6.685,6.684,6.685,6.685,0,0,1-6.685,6.685A6.684,6.684,0,0,1,121.645-959.316Zm-71.3,3.343A3.344,3.344,0,0,1,47-959.316a3.342,3.342,0,0,1,3.343-3.342h52.363a3.342,3.342,0,0,1,3.342,3.342,3.343,3.343,0,0,1-3.342,3.343Z" transform="translate(162.452 997.195)" fill="#eeeef2"/>
        </g>
      </g>
      <g id="white-mockup-4" data-name="white-mockup" transform="translate(667.094 -296.5) rotate(30)">
        <g id="phone-4" data-name="phone" transform="translate(0)">
          <g transform="matrix(0.87, -0.5, 0.5, 0.87, -70.91, 167.38)" filter="url(#body-4)">
            <path id="body-9" data-name="body" d="M71.3-24.641A66.846,66.846,0,0,1,4.456-91.486V-630.714A4.457,4.457,0,0,1,0-635.171v-60.162a4.456,4.456,0,0,1,4.456-4.456v-17.826A4.456,4.456,0,0,1,0-722.071v-60.162a4.457,4.457,0,0,1,4.456-4.457v-33.423A4.456,4.456,0,0,1,0-824.568v-26.739a4.457,4.457,0,0,1,4.456-4.457v-62.39A66.846,66.846,0,0,1,71.3-985H406.649a66.845,66.845,0,0,1,66.846,66.846v154.861a4.457,4.457,0,0,1,4.457,4.456v100.27a4.457,4.457,0,0,1-4.457,4.457V-91.486a66.845,66.845,0,0,1-66.846,66.846Z" transform="translate(-347.41 743.53) rotate(30)" fill="#fff"/>
          </g>
          <path id="camera-4" data-name="camera" d="M121.645-959.316A6.683,6.683,0,0,1,128.329-966a6.684,6.684,0,0,1,6.685,6.684,6.685,6.685,0,0,1-6.685,6.685A6.684,6.684,0,0,1,121.645-959.316Zm-71.3,3.343A3.344,3.344,0,0,1,47-959.316a3.342,3.342,0,0,1,3.343-3.342h52.363a3.342,3.342,0,0,1,3.342,3.342,3.343,3.343,0,0,1-3.342,3.343Z" transform="translate(162.452 997.195)" fill="#eeeef2"/>
        </g>
      </g>
      <g id="white-mockup-5" data-name="white-mockup" transform="translate(148.094 596.5) rotate(30)">
        <g id="phone-5" data-name="phone" transform="translate(0)">
          <g transform="matrix(0.87, -0.5, 0.5, 0.87, -67.94, -865.48)" filter="url(#body-5)">
            <path id="body-10" data-name="body" d="M71.3-24.641A66.846,66.846,0,0,1,4.456-91.486V-630.714A4.457,4.457,0,0,1,0-635.171v-60.162a4.456,4.456,0,0,1,4.456-4.456v-17.826A4.456,4.456,0,0,1,0-722.071v-60.162a4.457,4.457,0,0,1,4.456-4.457v-33.423A4.456,4.456,0,0,1,0-824.568v-26.739a4.457,4.457,0,0,1,4.456-4.457v-62.39A66.846,66.846,0,0,1,71.3-985H406.649a66.845,66.845,0,0,1,66.846,66.846v154.861a4.457,4.457,0,0,1,4.457,4.456v100.27a4.457,4.457,0,0,1-4.457,4.457V-91.486a66.845,66.845,0,0,1-66.846,66.846Z" transform="translate(-866.41 1636.53) rotate(30)" fill="#fff"/>
          </g>
          <path id="camera-5" data-name="camera" d="M121.645-959.316A6.683,6.683,0,0,1,128.329-966a6.684,6.684,0,0,1,6.685,6.684,6.685,6.685,0,0,1-6.685,6.685A6.684,6.684,0,0,1,121.645-959.316Zm-71.3,3.343A3.344,3.344,0,0,1,47-959.316a3.342,3.342,0,0,1,3.343-3.342h52.363a3.342,3.342,0,0,1,3.342,3.342,3.343,3.343,0,0,1-3.342,3.343Z" transform="translate(162.452 997.195)" fill="#eeeef2"/>
        </g>
      </g>
    </g>
  </g>
</svg>
