<svg xmlns="http://www.w3.org/2000/svg" xmlns:xlink="http://www.w3.org/1999/xlink" width="1920" height="1080" viewBox="0 0 1920 1080">
  <defs>
    <linearGradient id="linear-gradient" x1="1" y1="1" x2="0" gradientUnits="objectBoundingBox">
      <stop offset="0" stop-color="#e83232"/>
      <stop offset="0.523" stop-color="#e6641d"/>
      <stop offset="1" stop-color="#f78242"/>
    </linearGradient>
    <clipPath id="clip-path">
      <rect id="Rectangle_3" data-name="Rectangle 3" width="328" height="164" transform="translate(160 499)" fill="#221e41"/>
    </clipPath>
    <clipPath id="clip-kingsday-thumb-wide">
      <rect width="1920" height="1080"/>
    </clipPath>
  </defs>
  <g id="kingsday-thumb-wide" clip-path="url(#clip-kingsday-thumb-wide)">
    <rect width="1920" height="1080" fill="url(#linear-gradient)"/>
    <g id="Group_4" data-name="Group 4" transform="translate(-1173.809 -147.809)">
      <ellipse id="Ellipse_4" data-name="Ellipse 4" cx="18.5" cy="18" rx="18.5" ry="18" transform="translate(976.809 1002.809)" fill="#fff" opacity="0.1"/>
      <ellipse id="Ellipse_5" data-name="Ellipse 5" cx="18.5" cy="18" rx="18.5" ry="18" transform="translate(1068.809 1002.809)" fill="#fff" opacity="0.1"/>
      <ellipse id="Ellipse_6" data-name="Ellipse 6" cx="19" cy="18" rx="19" ry="18" transform="translate(1160.809 1002.809)" fill="#fff" opacity="0.1"/>
      <circle id="Ellipse_7" data-name="Ellipse 7" cx="18" cy="18" r="18" transform="translate(1253.809 1002.809)" fill="#fff" opacity="0.1"/>
      <ellipse id="Ellipse_8" data-name="Ellipse 8" cx="18.5" cy="19" rx="18.5" ry="19" transform="translate(976.809 909.809)" fill="#fff" opacity="0.1"/>
      <ellipse id="Ellipse_9" data-name="Ellipse 9" cx="18.5" cy="19" rx="18.5" ry="19" transform="translate(1068.809 909.809)" fill="#fff" opacity="0.1"/>
      <circle id="Ellipse_10" data-name="Ellipse 10" cx="19" cy="19" r="19" transform="translate(1160.809 909.809)" fill="#fff" opacity="0.1"/>
      <ellipse id="Ellipse_11" data-name="Ellipse 11" cx="18" cy="19" rx="18" ry="19" transform="translate(1253.809 909.809)" fill="#fff" opacity="0.1"/>
      <circle id="Ellipse_12" data-name="Ellipse 12" cx="18.5" cy="18.5" r="18.5" transform="translate(976.809 817.809)" fill="#fff" opacity="0.1"/>
      <circle id="Ellipse_13" data-name="Ellipse 13" cx="18.5" cy="18.5" r="18.5" transform="translate(1068.809 817.809)" fill="#fff" opacity="0.1"/>
      <ellipse id="Ellipse_14" data-name="Ellipse 14" cx="19" cy="18.5" rx="19" ry="18.5" transform="translate(1160.809 817.809)" fill="#fff" opacity="0.1"/>
      <ellipse id="Ellipse_15" data-name="Ellipse 15" cx="18" cy="18.5" rx="18" ry="18.5" transform="translate(1253.809 817.809)" fill="#fff" opacity="0.1"/>
      <circle id="Ellipse_16" data-name="Ellipse 16" cx="18.5" cy="18.5" r="18.5" transform="translate(976.809 725.809)" fill="#fff" opacity="0.1"/>
      <circle id="Ellipse_17" data-name="Ellipse 17" cx="18.5" cy="18.5" r="18.5" transform="translate(1068.809 725.809)" fill="#fff" opacity="0.1"/>
      <ellipse id="Ellipse_18" data-name="Ellipse 18" cx="19" cy="18.5" rx="19" ry="18.5" transform="translate(1160.809 725.809)" fill="#fff" opacity="0.1"/>
      <ellipse id="Ellipse_19" data-name="Ellipse 19" cx="18" cy="18.5" rx="18" ry="18.5" transform="translate(1253.809 725.809)" fill="#fff" opacity="0.1"/>
    </g>
    <g id="Group_5" data-name="Group 5" transform="translate(-685.809 -830.809)">
      <ellipse id="Ellipse_4-2" data-name="Ellipse 4" cx="12.5" cy="12" rx="12.5" ry="12" transform="translate(976.809 910.809)" fill="#fff" opacity="0.1"/>
      <circle id="Ellipse_5-2" data-name="Ellipse 5" cx="12" cy="12" r="12" transform="translate(1038.809 910.809)" fill="#fff" opacity="0.1"/>
      <ellipse id="Ellipse_6-2" data-name="Ellipse 6" cx="12.5" cy="12" rx="12.5" ry="12" transform="translate(1099.809 910.809)" fill="#fff" opacity="0.1"/>
      <circle id="Ellipse_7-2" data-name="Ellipse 7" cx="12" cy="12" r="12" transform="translate(1161.809 910.809)" fill="#fff" opacity="0.1"/>
      <circle id="Ellipse_8-2" data-name="Ellipse 8" cx="12.5" cy="12.5" r="12.5" transform="translate(976.809 848.809)" fill="#fff" opacity="0.1"/>
      <ellipse id="Ellipse_9-2" data-name="Ellipse 9" cx="12" cy="12.5" rx="12" ry="12.5" transform="translate(1038.809 848.809)" fill="#fff" opacity="0.1"/>
      <circle id="Ellipse_10-2" data-name="Ellipse 10" cx="12.5" cy="12.5" r="12.5" transform="translate(1099.809 848.809)" fill="#fff" opacity="0.1"/>
      <ellipse id="Ellipse_11-2" data-name="Ellipse 11" cx="12" cy="12.5" rx="12" ry="12.5" transform="translate(1161.809 848.809)" fill="#fff" opacity="0.1"/>
      <ellipse id="Ellipse_12-2" data-name="Ellipse 12" cx="12.5" cy="12" rx="12.5" ry="12" transform="translate(976.809 787.809)" fill="#fff" opacity="0.1"/>
      <circle id="Ellipse_13-2" data-name="Ellipse 13" cx="12" cy="12" r="12" transform="translate(1038.809 787.809)" fill="#fff" opacity="0.1"/>
      <ellipse id="Ellipse_14-2" data-name="Ellipse 14" cx="12.5" cy="12" rx="12.5" ry="12" transform="translate(1099.809 787.809)" fill="#fff" opacity="0.1"/>
      <circle id="Ellipse_15-2" data-name="Ellipse 15" cx="12" cy="12" r="12" transform="translate(1161.809 787.809)" fill="#fff" opacity="0.1"/>
      <circle id="Ellipse_16-2" data-name="Ellipse 16" cx="12.5" cy="12.5" r="12.5" transform="translate(976.809 725.809)" fill="#fff" opacity="0.1"/>
      <ellipse id="Ellipse_17-2" data-name="Ellipse 17" cx="12" cy="12.5" rx="12" ry="12.5" transform="translate(1038.809 725.809)" fill="#fff" opacity="0.1"/>
      <circle id="Ellipse_18-2" data-name="Ellipse 18" cx="12.5" cy="12.5" r="12.5" transform="translate(1099.809 725.809)" fill="#fff" opacity="0.1"/>
      <ellipse id="Ellipse_19-2" data-name="Ellipse 19" cx="12" cy="12.5" rx="12" ry="12.5" transform="translate(1161.809 725.809)" fill="#fff" opacity="0.1"/>
    </g>
    <g id="Mask_Group_1" data-name="Mask Group 1" transform="translate(1136 603) rotate(180)" opacity="0.1" clip-path="url(#clip-path)">
      <g id="Ellipse_3" data-name="Ellipse 3" transform="translate(160 499)" fill="none" stroke="#fff" stroke-width="60">
        <circle cx="164" cy="164" r="164" stroke="none"/>
        <circle cx="164" cy="164" r="134" fill="none"/>
      </g>
    </g>
    <rect id="Rectangle_5" data-name="Rectangle 5" width="146" height="1765.675" transform="translate(1596.892 -109.903) rotate(45)" fill="#fff" opacity="0.1"/>
  </g>
</svg>
