<svg xmlns="http://www.w3.org/2000/svg" xmlns:xlink="http://www.w3.org/1999/xlink" width="1920" height="1080" viewBox="0 0 1920 1080">
  <defs>
    <linearGradient id="linear-gradient" x2="1" y2="1" gradientUnits="objectBoundingBox">
      <stop offset="0" stop-color="#fe5f75"/>
      <stop offset="1" stop-color="#fc9842"/>
    </linearGradient>
    <clipPath id="clip-language-master-thumb-wide">
      <rect width="1920" height="1080"/>
    </clipPath>
  </defs>
  <g id="language-master-thumb-wide" clip-path="url(#clip-language-master-thumb-wide)">
    <rect width="1920" height="1080" fill="url(#linear-gradient)"/>
    <g id="Group_3" data-name="Group 3" transform="translate(-1202.809 136.191)">
      <ellipse id="Ellipse_4" data-name="Ellipse 4" cx="22" cy="21.5" rx="22" ry="21.5" transform="translate(976.809 1052.809)" fill="#fff" opacity="0.1"/>
      <circle id="Ellipse_5" data-name="Ellipse 5" cx="21.5" cy="21.5" r="21.5" transform="translate(1085.809 1052.809)" fill="#fff" opacity="0.1"/>
      <ellipse id="Ellipse_6" data-name="Ellipse 6" cx="22.5" cy="21.5" rx="22.5" ry="21.5" transform="translate(1193.809 1052.809)" fill="#fff" opacity="0.1"/>
      <circle id="Ellipse_7" data-name="Ellipse 7" cx="21.5" cy="21.5" r="21.5" transform="translate(1303.809 1052.809)" fill="#fff" opacity="0.1"/>
      <ellipse id="Ellipse_8" data-name="Ellipse 8" cx="22" cy="22.5" rx="22" ry="22.5" transform="translate(976.809 942.809)" fill="#fff" opacity="0.1"/>
      <ellipse id="Ellipse_9" data-name="Ellipse 9" cx="21.5" cy="22.5" rx="21.5" ry="22.5" transform="translate(1085.809 942.809)" fill="#fff" opacity="0.1"/>
      <circle id="Ellipse_10" data-name="Ellipse 10" cx="22.5" cy="22.5" r="22.5" transform="translate(1193.809 942.809)" fill="#fff" opacity="0.1"/>
      <ellipse id="Ellipse_11" data-name="Ellipse 11" cx="21.5" cy="22.5" rx="21.5" ry="22.5" transform="translate(1303.809 942.809)" fill="#fff" opacity="0.1"/>
      <ellipse id="Ellipse_12" data-name="Ellipse 12" cx="22" cy="21.5" rx="22" ry="21.5" transform="translate(976.809 834.809)" fill="#fff" opacity="0.1"/>
      <circle id="Ellipse_13" data-name="Ellipse 13" cx="21.5" cy="21.5" r="21.5" transform="translate(1085.809 834.809)" fill="#fff" opacity="0.1"/>
      <ellipse id="Ellipse_14" data-name="Ellipse 14" cx="22.5" cy="21.5" rx="22.5" ry="21.5" transform="translate(1193.809 834.809)" fill="#fff" opacity="0.1"/>
      <circle id="Ellipse_15" data-name="Ellipse 15" cx="21.5" cy="21.5" r="21.5" transform="translate(1303.809 834.809)" fill="#fff" opacity="0.1"/>
      <circle id="Ellipse_16" data-name="Ellipse 16" cx="22" cy="22" r="22" transform="translate(976.809 725.809)" fill="#fff" opacity="0.1"/>
      <ellipse id="Ellipse_17" data-name="Ellipse 17" cx="21.5" cy="22" rx="21.5" ry="22" transform="translate(1085.809 725.809)" fill="#fff" opacity="0.1"/>
      <ellipse id="Ellipse_18" data-name="Ellipse 18" cx="22.5" cy="22" rx="22.5" ry="22" transform="translate(1193.809 725.809)" fill="#fff" opacity="0.1"/>
      <ellipse id="Ellipse_19" data-name="Ellipse 19" cx="21.5" cy="22" rx="21.5" ry="22" transform="translate(1303.809 725.809)" fill="#fff" opacity="0.1"/>
    </g>
    <g id="Group_6" data-name="Group 6" transform="translate(-476.809 -954.809)">
      <ellipse id="Ellipse_4-2" data-name="Ellipse 4" cx="22" cy="21.5" rx="22" ry="21.5" transform="translate(976.809 1052.809)" fill="#fff" opacity="0.1"/>
      <circle id="Ellipse_5-2" data-name="Ellipse 5" cx="21.5" cy="21.5" r="21.5" transform="translate(1085.809 1052.809)" fill="#fff" opacity="0.1"/>
      <ellipse id="Ellipse_6-2" data-name="Ellipse 6" cx="22.5" cy="21.5" rx="22.5" ry="21.5" transform="translate(1193.809 1052.809)" fill="#fff" opacity="0.1"/>
      <circle id="Ellipse_7-2" data-name="Ellipse 7" cx="21.5" cy="21.5" r="21.5" transform="translate(1303.809 1052.809)" fill="#fff" opacity="0.1"/>
      <ellipse id="Ellipse_8-2" data-name="Ellipse 8" cx="22" cy="22.5" rx="22" ry="22.5" transform="translate(976.809 942.809)" fill="#fff" opacity="0.1"/>
      <ellipse id="Ellipse_9-2" data-name="Ellipse 9" cx="21.5" cy="22.5" rx="21.5" ry="22.5" transform="translate(1085.809 942.809)" fill="#fff" opacity="0.1"/>
      <circle id="Ellipse_10-2" data-name="Ellipse 10" cx="22.5" cy="22.5" r="22.5" transform="translate(1193.809 942.809)" fill="#fff" opacity="0.1"/>
      <ellipse id="Ellipse_11-2" data-name="Ellipse 11" cx="21.5" cy="22.5" rx="21.5" ry="22.5" transform="translate(1303.809 942.809)" fill="#fff" opacity="0.1"/>
      <ellipse id="Ellipse_12-2" data-name="Ellipse 12" cx="22" cy="21.5" rx="22" ry="21.5" transform="translate(976.809 834.809)" fill="#fff" opacity="0.1"/>
      <circle id="Ellipse_13-2" data-name="Ellipse 13" cx="21.5" cy="21.5" r="21.5" transform="translate(1085.809 834.809)" fill="#fff" opacity="0.1"/>
      <ellipse id="Ellipse_14-2" data-name="Ellipse 14" cx="22.5" cy="21.5" rx="22.5" ry="21.5" transform="translate(1193.809 834.809)" fill="#fff" opacity="0.1"/>
      <circle id="Ellipse_15-2" data-name="Ellipse 15" cx="21.5" cy="21.5" r="21.5" transform="translate(1303.809 834.809)" fill="#fff" opacity="0.1"/>
      <circle id="Ellipse_16-2" data-name="Ellipse 16" cx="22" cy="22" r="22" transform="translate(976.809 725.809)" fill="#fff" opacity="0.1"/>
      <ellipse id="Ellipse_17-2" data-name="Ellipse 17" cx="21.5" cy="22" rx="21.5" ry="22" transform="translate(1085.809 725.809)" fill="#fff" opacity="0.1"/>
      <ellipse id="Ellipse_18-2" data-name="Ellipse 18" cx="22.5" cy="22" rx="22.5" ry="22" transform="translate(1193.809 725.809)" fill="#fff" opacity="0.1"/>
      <ellipse id="Ellipse_19-2" data-name="Ellipse 19" cx="21.5" cy="22" rx="21.5" ry="22" transform="translate(1303.809 725.809)" fill="#fff" opacity="0.1"/>
    </g>
    <g id="Ellipse_2" data-name="Ellipse 2" transform="translate(603 385)" fill="none" stroke="#fff" stroke-width="30" opacity="0.1">
      <circle cx="107.5" cy="107.5" r="107.5" stroke="none"/>
      <circle cx="107.5" cy="107.5" r="92.5" fill="none"/>
    </g>
    <path id="Polygon_1" data-name="Polygon 1" d="M231,0,462,401H0Z" transform="translate(685 1000)" fill="#fff" opacity="0.1"/>
    <g id="Group_3-2" data-name="Group 3" transform="translate(514.191 -74.809)">
      <ellipse id="Ellipse_4-3" data-name="Ellipse 4" cx="22" cy="21.5" rx="22" ry="21.5" transform="translate(976.809 1052.809)" fill="#fff" opacity="0.1"/>
      <circle id="Ellipse_5-3" data-name="Ellipse 5" cx="21.5" cy="21.5" r="21.5" transform="translate(1085.809 1052.809)" fill="#fff" opacity="0.1"/>
      <ellipse id="Ellipse_6-3" data-name="Ellipse 6" cx="22.5" cy="21.5" rx="22.5" ry="21.5" transform="translate(1193.809 1052.809)" fill="#fff" opacity="0.1"/>
      <circle id="Ellipse_7-3" data-name="Ellipse 7" cx="21.5" cy="21.5" r="21.5" transform="translate(1303.809 1052.809)" fill="#fff" opacity="0.1"/>
      <ellipse id="Ellipse_8-3" data-name="Ellipse 8" cx="22" cy="22.5" rx="22" ry="22.5" transform="translate(976.809 942.809)" fill="#fff" opacity="0.1"/>
      <ellipse id="Ellipse_9-3" data-name="Ellipse 9" cx="21.5" cy="22.5" rx="21.5" ry="22.5" transform="translate(1085.809 942.809)" fill="#fff" opacity="0.1"/>
      <circle id="Ellipse_10-3" data-name="Ellipse 10" cx="22.5" cy="22.5" r="22.5" transform="translate(1193.809 942.809)" fill="#fff" opacity="0.1"/>
      <ellipse id="Ellipse_11-3" data-name="Ellipse 11" cx="21.5" cy="22.5" rx="21.5" ry="22.5" transform="translate(1303.809 942.809)" fill="#fff" opacity="0.1"/>
      <ellipse id="Ellipse_12-3" data-name="Ellipse 12" cx="22" cy="21.5" rx="22" ry="21.5" transform="translate(976.809 834.809)" fill="#fff" opacity="0.1"/>
      <circle id="Ellipse_13-3" data-name="Ellipse 13" cx="21.5" cy="21.5" r="21.5" transform="translate(1085.809 834.809)" fill="#fff" opacity="0.1"/>
      <ellipse id="Ellipse_14-3" data-name="Ellipse 14" cx="22.5" cy="21.5" rx="22.5" ry="21.5" transform="translate(1193.809 834.809)" fill="#fff" opacity="0.1"/>
      <circle id="Ellipse_15-3" data-name="Ellipse 15" cx="21.5" cy="21.5" r="21.5" transform="translate(1303.809 834.809)" fill="#fff" opacity="0.1"/>
      <circle id="Ellipse_16-3" data-name="Ellipse 16" cx="22" cy="22" r="22" transform="translate(976.809 725.809)" fill="#fff" opacity="0.1"/>
      <ellipse id="Ellipse_17-3" data-name="Ellipse 17" cx="21.5" cy="22" rx="21.5" ry="22" transform="translate(1085.809 725.809)" fill="#fff" opacity="0.1"/>
      <ellipse id="Ellipse_18-3" data-name="Ellipse 18" cx="22.5" cy="22" rx="22.5" ry="22" transform="translate(1193.809 725.809)" fill="#fff" opacity="0.1"/>
      <ellipse id="Ellipse_19-3" data-name="Ellipse 19" cx="21.5" cy="22" rx="21.5" ry="22" transform="translate(1303.809 725.809)" fill="#fff" opacity="0.1"/>
    </g>
    <rect id="Rectangle_5" data-name="Rectangle 5" width="157.377" height="1175.908" transform="translate(-110.254 499.949) rotate(-45)" fill="#fff" opacity="0.1"/>
  </g>
</svg>
