<svg xmlns="http://www.w3.org/2000/svg" xmlns:xlink="http://www.w3.org/1999/xlink" width="1920" height="1080" viewBox="0 0 1920 1080">
  <defs>
    <linearGradient id="linear-gradient" x2="1" y2="1" gradientUnits="objectBoundingBox">
      <stop offset="0" stop-color="#0d6ab0"/>
      <stop offset="1" stop-color="#009dff"/>
    </linearGradient>
    <clipPath id="clip-path">
      <rect id="Rectangle_3" data-name="Rectangle 3" width="1740" height="870" transform="translate(159.671 498.836)" fill="#221e41"/>
    </clipPath>
    <clipPath id="clip-medifit-thumb-wide">
      <rect width="1920" height="1080"/>
    </clipPath>
  </defs>
  <g id="medifit-thumb-wide" clip-path="url(#clip-medifit-thumb-wide)">
    <rect width="1920" height="1080" fill="url(#linear-gradient)"/>
    <path id="Polygon_1" data-name="Polygon 1" d="M246.5,0,493,427H0Z" transform="translate(-114 997)" fill="#fff" opacity="0.05"/>
    <g id="Polygon_2" data-name="Polygon 2" transform="translate(-136 905)" fill="none" opacity="0.1">
      <path d="M269,0,538,466H0Z" stroke="none"/>
      <path d="M 269 40.00509643554688 L 34.63812255859375 446 L 503.3618774414062 446 L 269 40.00509643554688 M 269 0 L 538 466 L 0 466 L 269 0 Z" stroke="none" fill="#fff"/>
    </g>
    <g id="Group_7" data-name="Group 7" transform="translate(-321 -752.807)">
      <ellipse id="Ellipse_5" data-name="Ellipse 5" cx="23" cy="21" rx="23" ry="21" transform="translate(1084 1051.807)" fill="#fff" opacity="0.05"/>
      <ellipse id="Ellipse_6" data-name="Ellipse 6" cx="22" cy="21" rx="22" ry="21" transform="translate(1193 1051.807)" fill="#fff" opacity="0.05"/>
      <ellipse id="Ellipse_7" data-name="Ellipse 7" cx="20.5" cy="21" rx="20.5" ry="21" transform="translate(1303 1051.807)" fill="#fff" opacity="0.05"/>
      <ellipse id="Ellipse_8" data-name="Ellipse 8" cx="22" cy="23" rx="22" ry="23" transform="translate(977 940.807)" fill="#fff" opacity="0.05"/>
      <circle id="Ellipse_9" data-name="Ellipse 9" cx="23" cy="23" r="23" transform="translate(1084 940.807)" fill="#fff" opacity="0.05"/>
      <ellipse id="Ellipse_10" data-name="Ellipse 10" cx="22" cy="23" rx="22" ry="23" transform="translate(1193 940.807)" fill="#fff" opacity="0.05"/>
      <ellipse id="Ellipse_11" data-name="Ellipse 11" cx="20.5" cy="23" rx="20.5" ry="23" transform="translate(1303 940.807)" fill="#fff" opacity="0.05"/>
      <circle id="Ellipse_12" data-name="Ellipse 12" cx="22" cy="22" r="22" transform="translate(977 833.807)" fill="#fff" opacity="0.05"/>
      <ellipse id="Ellipse_13" data-name="Ellipse 13" cx="23" cy="22" rx="23" ry="22" transform="translate(1084 833.807)" fill="#fff" opacity="0.05"/>
      <circle id="Ellipse_14" data-name="Ellipse 14" cx="22" cy="22" r="22" transform="translate(1193 833.807)" fill="#fff" opacity="0.05"/>
      <ellipse id="Ellipse_15" data-name="Ellipse 15" cx="20.5" cy="22" rx="20.5" ry="22" transform="translate(1303 833.807)" fill="#fff" opacity="0.05"/>
      <ellipse id="Ellipse_16" data-name="Ellipse 16" cx="22" cy="21.5" rx="22" ry="21.5" transform="translate(977 726.807)" fill="#fff" opacity="0.05"/>
      <ellipse id="Ellipse_17" data-name="Ellipse 17" cx="23" cy="21.5" rx="23" ry="21.5" transform="translate(1084 726.807)" fill="#fff" opacity="0.05"/>
      <ellipse id="Ellipse_18" data-name="Ellipse 18" cx="22" cy="21.5" rx="22" ry="21.5" transform="translate(1193 726.807)" fill="#fff" opacity="0.05"/>
      <ellipse id="Ellipse_19" data-name="Ellipse 19" cx="20.5" cy="21.5" rx="20.5" ry="21.5" transform="translate(1303 726.807)" fill="#fff" opacity="0.05"/>
    </g>
    <g id="Mask_Group_1" data-name="Mask Group 1" transform="translate(1899.671 1309.836) rotate(180)" opacity="0.05" clip-path="url(#clip-path)">
      <g id="Ellipse_3" data-name="Ellipse 3" transform="translate(159.671 498.836)" fill="none" stroke="#fff" stroke-width="60">
        <circle cx="870" cy="870" r="870" stroke="none"/>
        <circle cx="870" cy="870" r="840" fill="none"/>
      </g>
    </g>
  </g>
</svg>
