<svg xmlns="http://www.w3.org/2000/svg" xmlns:xlink="http://www.w3.org/1999/xlink" width="1920" height="1080" viewBox="0 0 1920 1080">
  <defs>
    <linearGradient id="linear-gradient" x2="1" y2="1" gradientUnits="objectBoundingBox">
      <stop offset="0" stop-color="#0a89ff"/>
      <stop offset="0.523" stop-color="#8fd6ff"/>
      <stop offset="1" stop-color="#c9dbe9"/>
    </linearGradient>
    <clipPath id="clip-path">
      <rect id="Rectangle_3" data-name="Rectangle 3" width="328" height="164" transform="translate(160 499)" fill="#221e41"/>
    </clipPath>
    <clipPath id="clip-plane-game-thumb-wide">
      <rect width="1920" height="1080"/>
    </clipPath>
  </defs>
  <g id="plane-game-thumb-wide" clip-path="url(#clip-plane-game-thumb-wide)">
    <rect width="1920" height="1080" fill="url(#linear-gradient)"/>
    <g id="Mask_Group_1" data-name="Mask Group 1" transform="translate(-140.161 1496.092) rotate(-120)" opacity="0.1" clip-path="url(#clip-path)">
      <g id="Ellipse_3" data-name="Ellipse 3" transform="translate(160 499)" fill="none" stroke="#fff" stroke-width="60">
        <circle cx="164" cy="164" r="164" stroke="none"/>
        <circle cx="164" cy="164" r="134" fill="none"/>
      </g>
    </g>
    <g id="Ellipse_2" data-name="Ellipse 2" transform="translate(201 808)" fill="none" stroke="#fff" stroke-width="30" opacity="0.05">
      <circle cx="75" cy="75" r="75" stroke="none"/>
      <circle cx="75" cy="75" r="60" fill="none"/>
    </g>
    <g id="Group_1" data-name="Group 1" transform="translate(-929 -670)">
      <ellipse id="Ellipse_4" data-name="Ellipse 4" cx="11.5" cy="11" rx="11.5" ry="11" transform="translate(977 895)" fill="#fff" opacity="0.1"/>
      <ellipse id="Ellipse_5" data-name="Ellipse 5" cx="11.5" cy="11" rx="11.5" ry="11" transform="translate(1033 895)" fill="#fff" opacity="0.1"/>
      <ellipse id="Ellipse_6" data-name="Ellipse 6" cx="11.5" cy="11" rx="11.5" ry="11" transform="translate(1089 895)" fill="#fff" opacity="0.1"/>
      <circle id="Ellipse_7" data-name="Ellipse 7" cx="11" cy="11" r="11" transform="translate(1146 895)" fill="#fff" opacity="0.1"/>
      <circle id="Ellipse_8" data-name="Ellipse 8" cx="11.5" cy="11.5" r="11.5" transform="translate(977 838)" fill="#fff" opacity="0.1"/>
      <circle id="Ellipse_9" data-name="Ellipse 9" cx="11.5" cy="11.5" r="11.5" transform="translate(1033 838)" fill="#fff" opacity="0.1"/>
      <circle id="Ellipse_10" data-name="Ellipse 10" cx="11.5" cy="11.5" r="11.5" transform="translate(1089 838)" fill="#fff" opacity="0.1"/>
      <ellipse id="Ellipse_11" data-name="Ellipse 11" cx="11" cy="11.5" rx="11" ry="11.5" transform="translate(1146 838)" fill="#fff" opacity="0.1"/>
      <circle id="Ellipse_12" data-name="Ellipse 12" cx="11.5" cy="11.5" r="11.5" transform="translate(977 782)" fill="#fff" opacity="0.1"/>
      <circle id="Ellipse_13" data-name="Ellipse 13" cx="11.5" cy="11.5" r="11.5" transform="translate(1033 782)" fill="#fff" opacity="0.1"/>
      <circle id="Ellipse_14" data-name="Ellipse 14" cx="11.5" cy="11.5" r="11.5" transform="translate(1089 782)" fill="#fff" opacity="0.1"/>
      <ellipse id="Ellipse_15" data-name="Ellipse 15" cx="11" cy="11.5" rx="11" ry="11.5" transform="translate(1146 782)" fill="#fff" opacity="0.1"/>
      <circle id="Ellipse_16" data-name="Ellipse 16" cx="11.5" cy="11.5" r="11.5" transform="translate(977 726)" fill="#fff" opacity="0.1"/>
      <circle id="Ellipse_17" data-name="Ellipse 17" cx="11.5" cy="11.5" r="11.5" transform="translate(1033 726)" fill="#fff" opacity="0.1"/>
      <circle id="Ellipse_18" data-name="Ellipse 18" cx="11.5" cy="11.5" r="11.5" transform="translate(1089 726)" fill="#fff" opacity="0.1"/>
      <ellipse id="Ellipse_19" data-name="Ellipse 19" cx="11" cy="11.5" rx="11" ry="11.5" transform="translate(1146 726)" fill="#fff" opacity="0.1"/>
    </g>
    <rect id="Rectangle_1" data-name="Rectangle 1" width="110.836" height="826.235" transform="translate(382.052 -46.081) rotate(-45)" fill="#fff" opacity="0.05"/>
    <g id="Polygon_2" data-name="Polygon 2" transform="translate(797 866)" fill="none" opacity="0.1">
      <path d="M124,0,248,215H0Z" stroke="none"/>
      <path d="M 124.0000076293945 40.031494140625 L 34.62283325195312 195 L 213.377197265625 195 L 124.0000076293945 40.031494140625 M 124.0000076293945 0 L 248 215 L 1.52587890625e-05 215 L 124.0000076293945 0 Z" stroke="none" fill="#fff"/>
    </g>
  </g>
</svg>
