<svg xmlns="http://www.w3.org/2000/svg" xmlns:xlink="http://www.w3.org/1999/xlink" width="1920" height="1080" viewBox="0 0 1920 1080">
  <defs>
    <linearGradient id="linear-gradient" x2="1" y2="1" gradientUnits="objectBoundingBox">
      <stop offset="0" stop-color="#ff5a4c"/>
      <stop offset="1" stop-color="#ffc7c2"/>
    </linearGradient>
    <clipPath id="clip-skatespot-thumb-wide">
      <rect width="1920" height="1080"/>
    </clipPath>
  </defs>
  <g id="skatespot-thumb-wide" clip-path="url(#clip-skatespot-thumb-wide)">
    <rect width="1920" height="1080" fill="url(#linear-gradient)"/>
    <g id="Group_1" data-name="Group 1" transform="translate(-990 333)">
      <ellipse id="Ellipse_4" data-name="Ellipse 4" cx="31" cy="30" rx="31" ry="30" transform="translate(977 1179)" fill="#fff" opacity="0.05"/>
      <ellipse id="Ellipse_5" data-name="Ellipse 5" cx="31" cy="30" rx="31" ry="30" transform="translate(1127 1179)" fill="#fff" opacity="0.05"/>
      <ellipse id="Ellipse_6" data-name="Ellipse 6" cx="30.5" cy="30" rx="30.5" ry="30" transform="translate(1278 1179)" fill="#fff" opacity="0.05"/>
      <circle id="Ellipse_7" data-name="Ellipse 7" cx="30" cy="30" r="30" transform="translate(1430 1179)" fill="#fff" opacity="0.05"/>
      <ellipse id="Ellipse_8" data-name="Ellipse 8" cx="31" cy="30.5" rx="31" ry="30.5" transform="translate(977 1027)" fill="#fff" opacity="0.05"/>
      <ellipse id="Ellipse_9" data-name="Ellipse 9" cx="31" cy="30.5" rx="31" ry="30.5" transform="translate(1127 1027)" fill="#fff" opacity="0.05"/>
      <circle id="Ellipse_10" data-name="Ellipse 10" cx="30.5" cy="30.5" r="30.5" transform="translate(1278 1027)" fill="#fff" opacity="0.05"/>
      <ellipse id="Ellipse_11" data-name="Ellipse 11" cx="30" cy="30.5" rx="30" ry="30.5" transform="translate(1430 1027)" fill="#fff" opacity="0.05"/>
      <circle id="Ellipse_12" data-name="Ellipse 12" cx="31" cy="31" r="31" transform="translate(977 876)" fill="#fff" opacity="0.05"/>
      <circle id="Ellipse_13" data-name="Ellipse 13" cx="31" cy="31" r="31" transform="translate(1127 876)" fill="#fff" opacity="0.05"/>
      <ellipse id="Ellipse_14" data-name="Ellipse 14" cx="30.5" cy="31" rx="30.5" ry="31" transform="translate(1278 876)" fill="#fff" opacity="0.05"/>
      <ellipse id="Ellipse_15" data-name="Ellipse 15" cx="30" cy="31" rx="30" ry="31" transform="translate(1430 876)" fill="#fff" opacity="0.05"/>
      <circle id="Ellipse_16" data-name="Ellipse 16" cx="31" cy="31" r="31" transform="translate(977 726)" fill="#fff" opacity="0.05"/>
      <circle id="Ellipse_17" data-name="Ellipse 17" cx="31" cy="31" r="31" transform="translate(1127 726)" fill="#fff" opacity="0.05"/>
      <ellipse id="Ellipse_18" data-name="Ellipse 18" cx="30.5" cy="31" rx="30.5" ry="31" transform="translate(1278 726)" fill="#fff" opacity="0.05"/>
      <ellipse id="Ellipse_19" data-name="Ellipse 19" cx="30" cy="31" rx="30" ry="31" transform="translate(1430 726)" fill="#fff" opacity="0.05"/>
    </g>
    <g id="Ellipse_2" data-name="Ellipse 2" transform="translate(808 -124)" fill="none" stroke="#fff" stroke-width="30" opacity="0.05">
      <circle cx="124.5" cy="124.5" r="124.5" stroke="none"/>
      <circle cx="124.5" cy="124.5" r="109.5" fill="none"/>
    </g>
    <path id="Polygon_1" data-name="Polygon 1" d="M150,0,300,260H0Z" transform="translate(49.251 123.653) rotate(60)" fill="#fff" opacity="0.1"/>
    <g id="Group_7" data-name="Group 7" transform="translate(-581 -809)">
      <ellipse id="Ellipse_4-2" data-name="Ellipse 4" cx="12.5" cy="12" rx="12.5" ry="12" transform="translate(977 910)" fill="#fff" opacity="0.1"/>
      <ellipse id="Ellipse_5-2" data-name="Ellipse 5" cx="12.5" cy="12" rx="12.5" ry="12" transform="translate(1038 910)" fill="#fff" opacity="0.1"/>
      <ellipse id="Ellipse_6-2" data-name="Ellipse 6" cx="12.5" cy="12" rx="12.5" ry="12" transform="translate(1099 910)" fill="#fff" opacity="0.1"/>
      <circle id="Ellipse_7-2" data-name="Ellipse 7" cx="12" cy="12" r="12" transform="translate(1161 910)" fill="#fff" opacity="0.1"/>
      <circle id="Ellipse_8-2" data-name="Ellipse 8" cx="12.5" cy="12.5" r="12.5" transform="translate(977 848)" fill="#fff" opacity="0.1"/>
      <circle id="Ellipse_9-2" data-name="Ellipse 9" cx="12.5" cy="12.5" r="12.5" transform="translate(1038 848)" fill="#fff" opacity="0.1"/>
      <circle id="Ellipse_10-2" data-name="Ellipse 10" cx="12.5" cy="12.5" r="12.5" transform="translate(1099 848)" fill="#fff" opacity="0.1"/>
      <ellipse id="Ellipse_11-2" data-name="Ellipse 11" cx="12" cy="12.5" rx="12" ry="12.5" transform="translate(1161 848)" fill="#fff" opacity="0.1"/>
      <circle id="Ellipse_12-2" data-name="Ellipse 12" cx="12.5" cy="12.5" r="12.5" transform="translate(977 787)" fill="#fff" opacity="0.1"/>
      <circle id="Ellipse_13-2" data-name="Ellipse 13" cx="12.5" cy="12.5" r="12.5" transform="translate(1038 787)" fill="#fff" opacity="0.1"/>
      <circle id="Ellipse_14-2" data-name="Ellipse 14" cx="12.5" cy="12.5" r="12.5" transform="translate(1099 787)" fill="#fff" opacity="0.1"/>
      <ellipse id="Ellipse_15-2" data-name="Ellipse 15" cx="12" cy="12.5" rx="12" ry="12.5" transform="translate(1161 787)" fill="#fff" opacity="0.1"/>
      <circle id="Ellipse_16-2" data-name="Ellipse 16" cx="12.5" cy="12.5" r="12.5" transform="translate(977 726)" fill="#fff" opacity="0.1"/>
      <circle id="Ellipse_17-2" data-name="Ellipse 17" cx="12.5" cy="12.5" r="12.5" transform="translate(1038 726)" fill="#fff" opacity="0.1"/>
      <circle id="Ellipse_18-2" data-name="Ellipse 18" cx="12.5" cy="12.5" r="12.5" transform="translate(1099 726)" fill="#fff" opacity="0.1"/>
      <ellipse id="Ellipse_19-2" data-name="Ellipse 19" cx="12" cy="12.5" rx="12" ry="12.5" transform="translate(1161 726)" fill="#fff" opacity="0.1"/>
    </g>
  </g>
</svg>
