<svg xmlns="http://www.w3.org/2000/svg" xmlns:xlink="http://www.w3.org/1999/xlink" width="1920" height="1080" viewBox="0 0 1920 1080">
  <defs>
    <linearGradient id="linear-gradient" x2="1" y2="1" gradientUnits="objectBoundingBox">
      <stop offset="0" stop-color="#fb3351"/>
      <stop offset="1" stop-color="#fe5631"/>
    </linearGradient>
    <clipPath id="clip-skatrixx-thumb-wide">
      <rect width="1920" height="1080"/>
    </clipPath>
  </defs>
  <g id="skatrixx-thumb-wide" clip-path="url(#clip-skatrixx-thumb-wide)">
    <rect width="1920" height="1080" fill="url(#linear-gradient)"/>
    <g id="Group_8" data-name="Group 8">
      <circle id="Ellipse_21" data-name="Ellipse 21" cx="623" cy="623" r="623" transform="translate(-789 268)" fill="#fff" opacity="0.1"/>
      <circle id="Ellipse_22" data-name="Ellipse 22" cx="377" cy="377" r="377" transform="translate(1599 -370)" fill="#fff" opacity="0.1"/>
      <g id="Group_2" data-name="Group 2" transform="translate(754.88 735.396)" opacity="0.1">
        <circle id="Ellipse_4" data-name="Ellipse 4" cx="12.5" cy="12.5" r="12.5" transform="translate(0.12 187.603)" fill="#fff"/>
        <circle id="Ellipse_5" data-name="Ellipse 5" cx="12.5" cy="12.5" r="12.5" transform="translate(63.12 187.603)" fill="#fff"/>
        <circle id="Ellipse_6" data-name="Ellipse 6" cx="12.5" cy="12.5" r="12.5" transform="translate(125.12 187.603)" fill="#fff"/>
        <ellipse id="Ellipse_7" data-name="Ellipse 7" cx="12" cy="12.5" rx="12" ry="12.5" transform="translate(188.12 187.603)" fill="#fff"/>
        <ellipse id="Ellipse_8" data-name="Ellipse 8" cx="12.5" cy="13" rx="12.5" ry="13" transform="translate(0.12 124.603)" fill="#fff"/>
        <ellipse id="Ellipse_9" data-name="Ellipse 9" cx="12.5" cy="13" rx="12.5" ry="13" transform="translate(63.12 124.603)" fill="#fff"/>
        <ellipse id="Ellipse_10" data-name="Ellipse 10" cx="12.5" cy="13" rx="12.5" ry="13" transform="translate(125.12 124.603)" fill="#fff"/>
        <ellipse id="Ellipse_11" data-name="Ellipse 11" cx="12" cy="13" rx="12" ry="13" transform="translate(188.12 124.603)" fill="#fff"/>
        <circle id="Ellipse_12" data-name="Ellipse 12" cx="12.5" cy="12.5" r="12.5" transform="translate(0.12 62.603)" fill="#fff"/>
        <circle id="Ellipse_13" data-name="Ellipse 13" cx="12.5" cy="12.5" r="12.5" transform="translate(63.12 62.603)" fill="#fff"/>
        <circle id="Ellipse_14" data-name="Ellipse 14" cx="12.5" cy="12.5" r="12.5" transform="translate(125.12 62.603)" fill="#fff"/>
        <ellipse id="Ellipse_15" data-name="Ellipse 15" cx="12" cy="12.5" rx="12" ry="12.5" transform="translate(188.12 62.603)" fill="#fff"/>
        <ellipse id="Ellipse_16" data-name="Ellipse 16" cx="12.5" cy="13" rx="12.5" ry="13" transform="translate(0.12 -0.397)" fill="#fff"/>
        <ellipse id="Ellipse_17" data-name="Ellipse 17" cx="12.5" cy="13" rx="12.5" ry="13" transform="translate(63.12 -0.397)" fill="#fff"/>
        <ellipse id="Ellipse_18" data-name="Ellipse 18" cx="12.5" cy="13" rx="12.5" ry="13" transform="translate(125.12 -0.397)" fill="#fff"/>
        <ellipse id="Ellipse_19" data-name="Ellipse 19" cx="12" cy="13" rx="12" ry="13" transform="translate(188.12 -0.397)" fill="#fff"/>
      </g>
      <g id="Group_7" data-name="Group 7" transform="translate(1721.88 928.396)" opacity="0.1">
        <circle id="Ellipse_4-2" data-name="Ellipse 4" cx="12.5" cy="12.5" r="12.5" transform="translate(0.12 187.603)" fill="#fff"/>
        <circle id="Ellipse_5-2" data-name="Ellipse 5" cx="12.5" cy="12.5" r="12.5" transform="translate(63.12 187.603)" fill="#fff"/>
        <circle id="Ellipse_6-2" data-name="Ellipse 6" cx="12.5" cy="12.5" r="12.5" transform="translate(125.12 187.603)" fill="#fff"/>
        <ellipse id="Ellipse_7-2" data-name="Ellipse 7" cx="12" cy="12.5" rx="12" ry="12.5" transform="translate(188.12 187.603)" fill="#fff"/>
        <ellipse id="Ellipse_8-2" data-name="Ellipse 8" cx="12.5" cy="13" rx="12.5" ry="13" transform="translate(0.12 124.603)" fill="#fff"/>
        <ellipse id="Ellipse_9-2" data-name="Ellipse 9" cx="12.5" cy="13" rx="12.5" ry="13" transform="translate(63.12 124.603)" fill="#fff"/>
        <ellipse id="Ellipse_10-2" data-name="Ellipse 10" cx="12.5" cy="13" rx="12.5" ry="13" transform="translate(125.12 124.603)" fill="#fff"/>
        <ellipse id="Ellipse_11-2" data-name="Ellipse 11" cx="12" cy="13" rx="12" ry="13" transform="translate(188.12 124.603)" fill="#fff"/>
        <circle id="Ellipse_12-2" data-name="Ellipse 12" cx="12.5" cy="12.5" r="12.5" transform="translate(0.12 62.603)" fill="#fff"/>
        <circle id="Ellipse_13-2" data-name="Ellipse 13" cx="12.5" cy="12.5" r="12.5" transform="translate(63.12 62.603)" fill="#fff"/>
        <circle id="Ellipse_14-2" data-name="Ellipse 14" cx="12.5" cy="12.5" r="12.5" transform="translate(125.12 62.603)" fill="#fff"/>
        <ellipse id="Ellipse_15-2" data-name="Ellipse 15" cx="12" cy="12.5" rx="12" ry="12.5" transform="translate(188.12 62.603)" fill="#fff"/>
        <ellipse id="Ellipse_16-2" data-name="Ellipse 16" cx="12.5" cy="13" rx="12.5" ry="13" transform="translate(0.12 -0.397)" fill="#fff"/>
        <ellipse id="Ellipse_17-2" data-name="Ellipse 17" cx="12.5" cy="13" rx="12.5" ry="13" transform="translate(63.12 -0.397)" fill="#fff"/>
        <ellipse id="Ellipse_18-2" data-name="Ellipse 18" cx="12.5" cy="13" rx="12.5" ry="13" transform="translate(125.12 -0.397)" fill="#fff"/>
        <ellipse id="Ellipse_19-2" data-name="Ellipse 19" cx="12" cy="13" rx="12" ry="13" transform="translate(188.12 -0.397)" fill="#fff"/>
      </g>
    </g>
  </g>
</svg>
