<?xml version="1.0" standalone="no"?>
<!DOCTYPE svg PUBLIC "-//W3C//DTD SVG 20010904//EN"
 "http://www.w3.org/TR/2001/REC-SVG-20010904/DTD/svg10.dtd">
<svg version="1.0" xmlns="http://www.w3.org/2000/svg"
 width="784.000000pt" height="784.000000pt" viewBox="0 0 784.000000 784.000000"
 preserveAspectRatio="xMidYMid meet">
<metadata>
Created by potrace 1.14, written by Peter Selinger 2001-2017
</metadata>
<g transform="translate(0.000000,784.000000) scale(0.100000,-0.100000)"
fill="#000000" stroke="none">
<path d="M3803 6895 c-24 -7 -573 -318 -1220 -691 -882 -509 -1189 -690 -1224
-725 -30 -30 -54 -65 -68 -103 l-21 -57 2 -1402 3 -1402 23 -46 c12 -26 40
-64 62 -85 36 -36 589 -364 671 -398 56 -23 128 -29 184 -14 62 17 2028 1148
2068 1189 30 33 34 64 12 96 -19 27 -632 381 -693 400 -61 19 -157 11 -214
-18 -24 -12 -275 -155 -558 -319 -283 -163 -530 -305 -548 -314 -19 -10 -49
-16 -70 -14 -31 2 -40 9 -55 38 -16 33 -17 92 -15 920 l3 885 27 55 c15 30 44
71 65 91 43 41 1493 881 1561 904 51 18 122 19 177 4 22 -6 171 -87 330 -179
160 -92 304 -175 322 -184 48 -24 88 -21 112 10 20 26 21 37 21 418 l0 391
-29 60 c-16 33 -44 74 -62 92 -42 39 -616 371 -684 395 -59 20 -124 22 -182 3z"/>
<path d="M5620 5857 c-59 -17 -2027 -1151 -2062 -1188 -34 -35 -36 -70 -5
-102 30 -33 625 -375 685 -394 61 -19 157 -11 214 18 24 12 275 155 558 319
284 163 530 305 548 314 19 10 49 16 70 14 31 -2 40 -9 55 -38 16 -33 17 -92
15 -920 l-3 -885 -27 -55 c-15 -30 -44 -71 -65 -91 -46 -44 -1497 -883 -1566
-906 -65 -21 -159 -13 -223 20 -27 13 -179 99 -338 191 -314 181 -336 189
-375 140 -20 -26 -21 -37 -21 -414 0 -435 1 -445 71 -524 30 -34 110 -85 347
-222 169 -98 330 -186 357 -196 64 -22 126 -22 190 0 38 14 1703 967 2303
1319 121 71 155 102 189 171 l28 57 0 1415 0 1415 -23 47 c-13 26 -40 64 -62
85 -35 36 -589 363 -672 397 -52 22 -136 28 -188 13z"/>
</g>
</svg>
