<svg xmlns="http://www.w3.org/2000/svg" xmlns:xlink="http://www.w3.org/1999/xlink" width="1920" height="1080" viewBox="0 0 1920 1080">
  <defs>
    <linearGradient id="linear-gradient" x2="1" y2="1" gradientUnits="objectBoundingBox">
      <stop offset="0" stop-color="#33fb9e"/>
      <stop offset="1" stop-color="#007840"/>
    </linearGradient>
    <filter id="body" x="1062.915" y="206.501" width="1074.098" height="1250.671" filterUnits="userSpaceOnUse">
      <feOffset input="SourceAlpha"/>
      <feGaussianBlur stdDeviation="30" result="blur"/>
      <feFlood flood-opacity="0.078"/>
      <feComposite operator="in" in2="blur"/>
      <feComposite in="SourceGraphic"/>
    </filter>
    <filter id="body-2" x="804.915" y="-479.499" width="1074.098" height="1250.671" filterUnits="userSpaceOnUse">
      <feOffset input="SourceAlpha"/>
      <feGaussianBlur stdDeviation="30" result="blur-2"/>
      <feFlood flood-opacity="0.078"/>
      <feComposite operator="in" in2="blur-2"/>
      <feComposite in="SourceGraphic"/>
    </filter>
    <filter id="body-3" x="270.915" y="428.501" width="1074.098" height="1250.671" filterUnits="userSpaceOnUse">
      <feOffset input="SourceAlpha"/>
      <feGaussianBlur stdDeviation="30" result="blur-3"/>
      <feFlood flood-opacity="0.078"/>
      <feComposite operator="in" in2="blur-3"/>
      <feComposite in="SourceGraphic"/>
    </filter>
    <filter id="body-4" x="96.915" y="-386.499" width="1074.098" height="1250.671" filterUnits="userSpaceOnUse">
      <feOffset input="SourceAlpha"/>
      <feGaussianBlur stdDeviation="30" result="blur-4"/>
      <feFlood flood-opacity="0.078"/>
      <feComposite operator="in" in2="blur-4"/>
      <feComposite in="SourceGraphic"/>
    </filter>
    <filter id="body-5" x="-422.085" y="506.501" width="1074.098" height="1250.671" filterUnits="userSpaceOnUse">
      <feOffset input="SourceAlpha"/>
      <feGaussianBlur stdDeviation="30" result="blur-5"/>
      <feFlood flood-opacity="0.078"/>
      <feComposite operator="in" in2="blur-5"/>
      <feComposite in="SourceGraphic"/>
    </filter>
    <clipPath id="clip-happygreen-wide-3">
      <rect width="1920" height="1080"/>
    </clipPath>
  </defs>
  <g id="happygreen-wide-3" clip-path="url(#clip-happygreen-wide-3)">
    <rect width="1920" height="1080" fill="url(#linear-gradient)"/>
    <g id="Group_8" data-name="Group 8">
      <circle id="Ellipse_21" data-name="Ellipse 21" cx="623" cy="623" r="623" transform="translate(-789 268)" fill="#fff" opacity="0.1"/>
      <circle id="Ellipse_22" data-name="Ellipse 22" cx="377" cy="377" r="377" transform="translate(1599 -370)" fill="#fff" opacity="0.1"/>
      <g id="Group_2" data-name="Group 2" transform="translate(754.88 735.396)" opacity="0.1">
        <circle id="Ellipse_4" data-name="Ellipse 4" cx="12.5" cy="12.5" r="12.5" transform="translate(0.12 187.603)" fill="#fff"/>
        <circle id="Ellipse_5" data-name="Ellipse 5" cx="12.5" cy="12.5" r="12.5" transform="translate(63.12 187.603)" fill="#fff"/>
        <circle id="Ellipse_6" data-name="Ellipse 6" cx="12.5" cy="12.5" r="12.5" transform="translate(125.12 187.603)" fill="#fff"/>
        <ellipse id="Ellipse_7" data-name="Ellipse 7" cx="12" cy="12.5" rx="12" ry="12.5" transform="translate(188.12 187.603)" fill="#fff"/>
        <ellipse id="Ellipse_8" data-name="Ellipse 8" cx="12.5" cy="13" rx="12.5" ry="13" transform="translate(0.12 124.603)" fill="#fff"/>
        <ellipse id="Ellipse_9" data-name="Ellipse 9" cx="12.5" cy="13" rx="12.5" ry="13" transform="translate(63.12 124.603)" fill="#fff"/>
        <ellipse id="Ellipse_10" data-name="Ellipse 10" cx="12.5" cy="13" rx="12.5" ry="13" transform="translate(125.12 124.603)" fill="#fff"/>
        <ellipse id="Ellipse_11" data-name="Ellipse 11" cx="12" cy="13" rx="12" ry="13" transform="translate(188.12 124.603)" fill="#fff"/>
        <circle id="Ellipse_12" data-name="Ellipse 12" cx="12.5" cy="12.5" r="12.5" transform="translate(0.12 62.603)" fill="#fff"/>
        <circle id="Ellipse_13" data-name="Ellipse 13" cx="12.5" cy="12.5" r="12.5" transform="translate(63.12 62.603)" fill="#fff"/>
        <circle id="Ellipse_14" data-name="Ellipse 14" cx="12.5" cy="12.5" r="12.5" transform="translate(125.12 62.603)" fill="#fff"/>
        <ellipse id="Ellipse_15" data-name="Ellipse 15" cx="12" cy="12.5" rx="12" ry="12.5" transform="translate(188.12 62.603)" fill="#fff"/>
        <ellipse id="Ellipse_16" data-name="Ellipse 16" cx="12.5" cy="13" rx="12.5" ry="13" transform="translate(0.12 -0.397)" fill="#fff"/>
        <ellipse id="Ellipse_17" data-name="Ellipse 17" cx="12.5" cy="13" rx="12.5" ry="13" transform="translate(63.12 -0.397)" fill="#fff"/>
        <ellipse id="Ellipse_18" data-name="Ellipse 18" cx="12.5" cy="13" rx="12.5" ry="13" transform="translate(125.12 -0.397)" fill="#fff"/>
        <ellipse id="Ellipse_19" data-name="Ellipse 19" cx="12" cy="13" rx="12" ry="13" transform="translate(188.12 -0.397)" fill="#fff"/>
      </g>
      <g id="Group_7" data-name="Group 7" transform="translate(1721.88 928.396)" opacity="0.1">
        <circle id="Ellipse_4-2" data-name="Ellipse 4" cx="12.5" cy="12.5" r="12.5" transform="translate(0.12 187.603)" fill="#fff"/>
        <circle id="Ellipse_5-2" data-name="Ellipse 5" cx="12.5" cy="12.5" r="12.5" transform="translate(63.12 187.603)" fill="#fff"/>
        <circle id="Ellipse_6-2" data-name="Ellipse 6" cx="12.5" cy="12.5" r="12.5" transform="translate(125.12 187.603)" fill="#fff"/>
        <ellipse id="Ellipse_7-2" data-name="Ellipse 7" cx="12" cy="12.5" rx="12" ry="12.5" transform="translate(188.12 187.603)" fill="#fff"/>
        <ellipse id="Ellipse_8-2" data-name="Ellipse 8" cx="12.5" cy="13" rx="12.5" ry="13" transform="translate(0.12 124.603)" fill="#fff"/>
        <ellipse id="Ellipse_9-2" data-name="Ellipse 9" cx="12.5" cy="13" rx="12.5" ry="13" transform="translate(63.12 124.603)" fill="#fff"/>
        <ellipse id="Ellipse_10-2" data-name="Ellipse 10" cx="12.5" cy="13" rx="12.5" ry="13" transform="translate(125.12 124.603)" fill="#fff"/>
        <ellipse id="Ellipse_11-2" data-name="Ellipse 11" cx="12" cy="13" rx="12" ry="13" transform="translate(188.12 124.603)" fill="#fff"/>
        <circle id="Ellipse_12-2" data-name="Ellipse 12" cx="12.5" cy="12.5" r="12.5" transform="translate(0.12 62.603)" fill="#fff"/>
        <circle id="Ellipse_13-2" data-name="Ellipse 13" cx="12.5" cy="12.5" r="12.5" transform="translate(63.12 62.603)" fill="#fff"/>
        <circle id="Ellipse_14-2" data-name="Ellipse 14" cx="12.5" cy="12.5" r="12.5" transform="translate(125.12 62.603)" fill="#fff"/>
        <ellipse id="Ellipse_15-2" data-name="Ellipse 15" cx="12" cy="12.5" rx="12" ry="12.5" transform="translate(188.12 62.603)" fill="#fff"/>
        <ellipse id="Ellipse_16-2" data-name="Ellipse 16" cx="12.5" cy="13" rx="12.5" ry="13" transform="translate(0.12 -0.397)" fill="#fff"/>
        <ellipse id="Ellipse_17-2" data-name="Ellipse 17" cx="12.5" cy="13" rx="12.5" ry="13" transform="translate(63.12 -0.397)" fill="#fff"/>
        <ellipse id="Ellipse_18-2" data-name="Ellipse 18" cx="12.5" cy="13" rx="12.5" ry="13" transform="translate(125.12 -0.397)" fill="#fff"/>
        <ellipse id="Ellipse_19-2" data-name="Ellipse 19" cx="12" cy="13" rx="12" ry="13" transform="translate(188.12 -0.397)" fill="#fff"/>
      </g>
    </g>
    <g id="white-mockup" transform="translate(1633.094 296.501) rotate(30)">
      <g id="phone" transform="translate(0)">
        <g transform="matrix(0.87, -0.5, 0.5, 0.87, -1562.55, 559.77)" filter="url(#body)">
          <path id="body-6" data-name="body" d="M71.3-24.641A66.846,66.846,0,0,1,4.456-91.486V-630.714A4.457,4.457,0,0,1,0-635.171v-60.162a4.456,4.456,0,0,1,4.456-4.456v-17.826A4.456,4.456,0,0,1,0-722.071v-60.162a4.457,4.457,0,0,1,4.456-4.457v-33.423A4.456,4.456,0,0,1,0-824.568v-26.739a4.457,4.457,0,0,1,4.456-4.457v-62.39A66.846,66.846,0,0,1,71.3-985H406.649a66.845,66.845,0,0,1,66.846,66.846v154.861a4.457,4.457,0,0,1,4.457,4.456v100.27a4.457,4.457,0,0,1-4.457,4.457V-91.486a66.845,66.845,0,0,1-66.846,66.846Z" transform="translate(1140.59 1149.54) rotate(30)" fill="#fff"/>
        </g>
        <path id="camera" d="M121.645-959.316A6.683,6.683,0,0,1,128.329-966a6.684,6.684,0,0,1,6.685,6.684,6.685,6.685,0,0,1-6.685,6.685A6.684,6.684,0,0,1,121.645-959.316Zm-71.3,3.343A3.344,3.344,0,0,1,47-959.316a3.342,3.342,0,0,1,3.343-3.342h52.363a3.342,3.342,0,0,1,3.342,3.342,3.343,3.343,0,0,1-3.342,3.343Z" transform="translate(162.452 997.195)" fill="#eeeef2"/>
      </g>
    </g>
    <g id="white-mockup-2" data-name="white-mockup" transform="translate(1375.094 -389.5) rotate(30)">
      <g id="phone-2" data-name="phone" transform="translate(0)">
        <g transform="matrix(0.87, -0.5, 0.5, 0.87, -996.12, 1024.86)" filter="url(#body-2)">
          <path id="body-7" data-name="body" d="M71.3-24.641A66.846,66.846,0,0,1,4.456-91.486V-630.714A4.457,4.457,0,0,1,0-635.171v-60.162a4.456,4.456,0,0,1,4.456-4.456v-17.826A4.456,4.456,0,0,1,0-722.071v-60.162a4.457,4.457,0,0,1,4.456-4.457v-33.423A4.456,4.456,0,0,1,0-824.568v-26.739a4.457,4.457,0,0,1,4.456-4.457v-62.39A66.846,66.846,0,0,1,71.3-985H406.649a66.845,66.845,0,0,1,66.846,66.846v154.861a4.457,4.457,0,0,1,4.457,4.456v100.27a4.457,4.457,0,0,1-4.457,4.457V-91.486a66.845,66.845,0,0,1-66.846,66.846Z" transform="translate(882.59 463.54) rotate(30)" fill="#fff"/>
        </g>
        <path id="camera-2" data-name="camera" d="M121.645-959.316A6.683,6.683,0,0,1,128.329-966a6.684,6.684,0,0,1,6.685,6.684,6.685,6.685,0,0,1-6.685,6.685A6.684,6.684,0,0,1,121.645-959.316Zm-71.3,3.343A3.344,3.344,0,0,1,47-959.316a3.342,3.342,0,0,1,3.343-3.342h52.363a3.342,3.342,0,0,1,3.342,3.342,3.343,3.343,0,0,1-3.342,3.343Z" transform="translate(162.452 997.195)" fill="#eeeef2"/>
      </g>
    </g>
    <g id="white-mockup-3" data-name="white-mockup" transform="translate(841.094 518.5) rotate(30)">
      <g id="phone-3" data-name="phone" transform="translate(0)">
        <g transform="matrix(0.87, -0.5, 0.5, 0.87, -987.66, -28.49)" filter="url(#body-3)">
          <path id="body-8" data-name="body" d="M71.3-24.641A66.846,66.846,0,0,1,4.456-91.486V-630.714A4.457,4.457,0,0,1,0-635.171v-60.162a4.456,4.456,0,0,1,4.456-4.456v-17.826A4.456,4.456,0,0,1,0-722.071v-60.162a4.457,4.457,0,0,1,4.456-4.457v-33.423A4.456,4.456,0,0,1,0-824.568v-26.739a4.457,4.457,0,0,1,4.456-4.457v-62.39A66.846,66.846,0,0,1,71.3-985H406.649a66.845,66.845,0,0,1,66.846,66.846v154.861a4.457,4.457,0,0,1,4.457,4.456v100.27a4.457,4.457,0,0,1-4.457,4.457V-91.486a66.845,66.845,0,0,1-66.846,66.846Z" transform="translate(348.59 1371.54) rotate(30)" fill="#fff"/>
        </g>
        <path id="camera-3" data-name="camera" d="M121.645-959.316A6.683,6.683,0,0,1,128.329-966a6.684,6.684,0,0,1,6.685,6.684,6.685,6.685,0,0,1-6.685,6.685A6.684,6.684,0,0,1,121.645-959.316Zm-71.3,3.343A3.344,3.344,0,0,1,47-959.316a3.342,3.342,0,0,1,3.343-3.342h52.363a3.342,3.342,0,0,1,3.342,3.342,3.343,3.343,0,0,1-3.342,3.343Z" transform="translate(162.452 997.195)" fill="#eeeef2"/>
      </g>
    </g>
    <g id="white-mockup-4" data-name="white-mockup" transform="translate(667.094 -296.5) rotate(30)">
      <g id="phone-4" data-name="phone" transform="translate(0)">
        <g transform="matrix(0.87, -0.5, 0.5, 0.87, -429.47, 590.32)" filter="url(#body-4)">
          <path id="body-9" data-name="body" d="M71.3-24.641A66.846,66.846,0,0,1,4.456-91.486V-630.714A4.457,4.457,0,0,1,0-635.171v-60.162a4.456,4.456,0,0,1,4.456-4.456v-17.826A4.456,4.456,0,0,1,0-722.071v-60.162a4.457,4.457,0,0,1,4.456-4.457v-33.423A4.456,4.456,0,0,1,0-824.568v-26.739a4.457,4.457,0,0,1,4.456-4.457v-62.39A66.846,66.846,0,0,1,71.3-985H406.649a66.845,66.845,0,0,1,66.846,66.846v154.861a4.457,4.457,0,0,1,4.457,4.456v100.27a4.457,4.457,0,0,1-4.457,4.457V-91.486a66.845,66.845,0,0,1-66.846,66.846Z" transform="translate(174.59 556.54) rotate(30)" fill="#fff"/>
        </g>
        <path id="camera-4" data-name="camera" d="M121.645-959.316A6.683,6.683,0,0,1,128.329-966a6.684,6.684,0,0,1,6.685,6.684,6.685,6.685,0,0,1-6.685,6.685A6.684,6.684,0,0,1,121.645-959.316Zm-71.3,3.343A3.344,3.344,0,0,1,47-959.316a3.342,3.342,0,0,1,3.343-3.342h52.363a3.342,3.342,0,0,1,3.342,3.342,3.343,3.343,0,0,1-3.342,3.343Z" transform="translate(162.452 997.195)" fill="#eeeef2"/>
      </g>
    </g>
    <g id="white-mockup-5" data-name="white-mockup" transform="translate(148.094 596.5) rotate(30)">
      <g id="phone-5" data-name="phone" transform="translate(0)">
        <g transform="matrix(0.87, -0.5, 0.5, 0.87, -426.5, -442.54)" filter="url(#body-5)">
          <path id="body-10" data-name="body" d="M71.3-24.641A66.846,66.846,0,0,1,4.456-91.486V-630.714A4.457,4.457,0,0,1,0-635.171v-60.162a4.456,4.456,0,0,1,4.456-4.456v-17.826A4.456,4.456,0,0,1,0-722.071v-60.162a4.457,4.457,0,0,1,4.456-4.457v-33.423A4.456,4.456,0,0,1,0-824.568v-26.739a4.457,4.457,0,0,1,4.456-4.457v-62.39A66.846,66.846,0,0,1,71.3-985H406.649a66.845,66.845,0,0,1,66.846,66.846v154.861a4.457,4.457,0,0,1,4.457,4.456v100.27a4.457,4.457,0,0,1-4.457,4.457V-91.486a66.845,66.845,0,0,1-66.846,66.846Z" transform="translate(-344.41 1449.54) rotate(30)" fill="#fff"/>
        </g>
        <path id="camera-5" data-name="camera" d="M121.645-959.316A6.683,6.683,0,0,1,128.329-966a6.684,6.684,0,0,1,6.685,6.684,6.685,6.685,0,0,1-6.685,6.685A6.684,6.684,0,0,1,121.645-959.316Zm-71.3,3.343A3.344,3.344,0,0,1,47-959.316a3.342,3.342,0,0,1,3.343-3.342h52.363a3.342,3.342,0,0,1,3.342,3.342,3.343,3.343,0,0,1-3.342,3.343Z" transform="translate(162.452 997.195)" fill="#eeeef2"/>
      </g>
    </g>
  </g>
</svg>
