<svg xmlns="http://www.w3.org/2000/svg" xmlns:xlink="http://www.w3.org/1999/xlink" width="1920" height="1080" viewBox="0 0 1920 1080">
  <defs>
    <linearGradient id="linear-gradient" x2="1" y2="1" gradientUnits="objectBoundingBox">
      <stop offset="0" stop-color="#33fb9e"/>
      <stop offset="1" stop-color="#007840"/>
    </linearGradient>
    <filter id="body" x="183.988" y="165.656" width="463.024" height="748.687" filterUnits="userSpaceOnUse">
      <feOffset input="SourceAlpha"/>
      <feGaussianBlur stdDeviation="30" result="blur"/>
      <feFlood flood-opacity="0.078"/>
      <feComposite operator="in" in2="blur"/>
      <feComposite in="SourceGraphic"/>
    </filter>
    <filter id="body-2" x="546.988" y="165.656" width="463.024" height="748.687" filterUnits="userSpaceOnUse">
      <feOffset input="SourceAlpha"/>
      <feGaussianBlur stdDeviation="30" result="blur-2"/>
      <feFlood flood-opacity="0.078"/>
      <feComposite operator="in" in2="blur-2"/>
      <feComposite in="SourceGraphic"/>
    </filter>
    <filter id="body-3" x="909.988" y="165.656" width="463.024" height="748.687" filterUnits="userSpaceOnUse">
      <feOffset input="SourceAlpha"/>
      <feGaussianBlur stdDeviation="30" result="blur-3"/>
      <feFlood flood-opacity="0.078"/>
      <feComposite operator="in" in2="blur-3"/>
      <feComposite in="SourceGraphic"/>
    </filter>
    <filter id="body-4" x="1272.988" y="165.656" width="463.024" height="748.687" filterUnits="userSpaceOnUse">
      <feOffset input="SourceAlpha"/>
      <feGaussianBlur stdDeviation="30" result="blur-4"/>
      <feFlood flood-opacity="0.078"/>
      <feComposite operator="in" in2="blur-4"/>
      <feComposite in="SourceGraphic"/>
    </filter>
    <clipPath id="clip-happygreen-wide-1">
      <rect width="1920" height="1080"/>
    </clipPath>
  </defs>
  <g id="happygreen-wide-1" clip-path="url(#clip-happygreen-wide-1)">
    <rect width="1920" height="1080" fill="url(#linear-gradient)"/>
    <g id="Group_8" data-name="Group 8">
      <circle id="Ellipse_21" data-name="Ellipse 21" cx="623" cy="623" r="623" transform="translate(-789 268)" fill="#fff" opacity="0.1"/>
      <circle id="Ellipse_22" data-name="Ellipse 22" cx="377" cy="377" r="377" transform="translate(1599 -370)" fill="#fff" opacity="0.1"/>
      <g id="Group_2" data-name="Group 2" transform="translate(754.88 735.396)" opacity="0.1">
        <circle id="Ellipse_4" data-name="Ellipse 4" cx="12.5" cy="12.5" r="12.5" transform="translate(0.12 187.603)" fill="#fff"/>
        <circle id="Ellipse_5" data-name="Ellipse 5" cx="12.5" cy="12.5" r="12.5" transform="translate(63.12 187.603)" fill="#fff"/>
        <circle id="Ellipse_6" data-name="Ellipse 6" cx="12.5" cy="12.5" r="12.5" transform="translate(125.12 187.603)" fill="#fff"/>
        <ellipse id="Ellipse_7" data-name="Ellipse 7" cx="12" cy="12.5" rx="12" ry="12.5" transform="translate(188.12 187.603)" fill="#fff"/>
        <ellipse id="Ellipse_8" data-name="Ellipse 8" cx="12.5" cy="13" rx="12.5" ry="13" transform="translate(0.12 124.603)" fill="#fff"/>
        <ellipse id="Ellipse_9" data-name="Ellipse 9" cx="12.5" cy="13" rx="12.5" ry="13" transform="translate(63.12 124.603)" fill="#fff"/>
        <ellipse id="Ellipse_10" data-name="Ellipse 10" cx="12.5" cy="13" rx="12.5" ry="13" transform="translate(125.12 124.603)" fill="#fff"/>
        <ellipse id="Ellipse_11" data-name="Ellipse 11" cx="12" cy="13" rx="12" ry="13" transform="translate(188.12 124.603)" fill="#fff"/>
        <circle id="Ellipse_12" data-name="Ellipse 12" cx="12.5" cy="12.5" r="12.5" transform="translate(0.12 62.603)" fill="#fff"/>
        <circle id="Ellipse_13" data-name="Ellipse 13" cx="12.5" cy="12.5" r="12.5" transform="translate(63.12 62.603)" fill="#fff"/>
        <circle id="Ellipse_14" data-name="Ellipse 14" cx="12.5" cy="12.5" r="12.5" transform="translate(125.12 62.603)" fill="#fff"/>
        <ellipse id="Ellipse_15" data-name="Ellipse 15" cx="12" cy="12.5" rx="12" ry="12.5" transform="translate(188.12 62.603)" fill="#fff"/>
        <ellipse id="Ellipse_16" data-name="Ellipse 16" cx="12.5" cy="13" rx="12.5" ry="13" transform="translate(0.12 -0.397)" fill="#fff"/>
        <ellipse id="Ellipse_17" data-name="Ellipse 17" cx="12.5" cy="13" rx="12.5" ry="13" transform="translate(63.12 -0.397)" fill="#fff"/>
        <ellipse id="Ellipse_18" data-name="Ellipse 18" cx="12.5" cy="13" rx="12.5" ry="13" transform="translate(125.12 -0.397)" fill="#fff"/>
        <ellipse id="Ellipse_19" data-name="Ellipse 19" cx="12" cy="13" rx="12" ry="13" transform="translate(188.12 -0.397)" fill="#fff"/>
      </g>
      <g id="Group_7" data-name="Group 7" transform="translate(1721.88 928.396)" opacity="0.1">
        <circle id="Ellipse_4-2" data-name="Ellipse 4" cx="12.5" cy="12.5" r="12.5" transform="translate(0.12 187.603)" fill="#fff"/>
        <circle id="Ellipse_5-2" data-name="Ellipse 5" cx="12.5" cy="12.5" r="12.5" transform="translate(63.12 187.603)" fill="#fff"/>
        <circle id="Ellipse_6-2" data-name="Ellipse 6" cx="12.5" cy="12.5" r="12.5" transform="translate(125.12 187.603)" fill="#fff"/>
        <ellipse id="Ellipse_7-2" data-name="Ellipse 7" cx="12" cy="12.5" rx="12" ry="12.5" transform="translate(188.12 187.603)" fill="#fff"/>
        <ellipse id="Ellipse_8-2" data-name="Ellipse 8" cx="12.5" cy="13" rx="12.5" ry="13" transform="translate(0.12 124.603)" fill="#fff"/>
        <ellipse id="Ellipse_9-2" data-name="Ellipse 9" cx="12.5" cy="13" rx="12.5" ry="13" transform="translate(63.12 124.603)" fill="#fff"/>
        <ellipse id="Ellipse_10-2" data-name="Ellipse 10" cx="12.5" cy="13" rx="12.5" ry="13" transform="translate(125.12 124.603)" fill="#fff"/>
        <ellipse id="Ellipse_11-2" data-name="Ellipse 11" cx="12" cy="13" rx="12" ry="13" transform="translate(188.12 124.603)" fill="#fff"/>
        <circle id="Ellipse_12-2" data-name="Ellipse 12" cx="12.5" cy="12.5" r="12.5" transform="translate(0.12 62.603)" fill="#fff"/>
        <circle id="Ellipse_13-2" data-name="Ellipse 13" cx="12.5" cy="12.5" r="12.5" transform="translate(63.12 62.603)" fill="#fff"/>
        <circle id="Ellipse_14-2" data-name="Ellipse 14" cx="12.5" cy="12.5" r="12.5" transform="translate(125.12 62.603)" fill="#fff"/>
        <ellipse id="Ellipse_15-2" data-name="Ellipse 15" cx="12" cy="12.5" rx="12" ry="12.5" transform="translate(188.12 62.603)" fill="#fff"/>
        <ellipse id="Ellipse_16-2" data-name="Ellipse 16" cx="12.5" cy="13" rx="12.5" ry="13" transform="translate(0.12 -0.397)" fill="#fff"/>
        <ellipse id="Ellipse_17-2" data-name="Ellipse 17" cx="12.5" cy="13" rx="12.5" ry="13" transform="translate(63.12 -0.397)" fill="#fff"/>
        <ellipse id="Ellipse_18-2" data-name="Ellipse 18" cx="12.5" cy="13" rx="12.5" ry="13" transform="translate(125.12 -0.397)" fill="#fff"/>
        <ellipse id="Ellipse_19-2" data-name="Ellipse 19" cx="12" cy="13" rx="12" ry="13" transform="translate(188.12 -0.397)" fill="#fff"/>
      </g>
    </g>
    <g id="white-mockup" transform="translate(273.988 255.657)">
      <g id="phone" transform="translate(0)">
        <g transform="matrix(1, 0, 0, 1, -273.99, -255.66)" filter="url(#body)">
          <path id="body-5" data-name="body" d="M42.223-416.313A39.584,39.584,0,0,1,2.639-455.9V-775.206A2.639,2.639,0,0,1,0-777.845V-813.47a2.639,2.639,0,0,1,2.639-2.639v-10.556A2.639,2.639,0,0,1,0-829.3v-35.625a2.639,2.639,0,0,1,2.639-2.639V-887.36A2.639,2.639,0,0,1,0-890v-15.834a2.639,2.639,0,0,1,2.639-2.639v-36.945A39.584,39.584,0,0,1,42.223-985H240.8a39.583,39.583,0,0,1,39.583,39.583v91.7a2.639,2.639,0,0,1,2.639,2.639V-791.7a2.639,2.639,0,0,1-2.639,2.639V-455.9A39.583,39.583,0,0,1,240.8-416.313Z" transform="translate(273.99 1240.66)" fill="#fff"/>
        </g>
        <path id="camera" d="M91.2-962.042A3.958,3.958,0,0,1,95.16-966a3.958,3.958,0,0,1,3.959,3.958,3.959,3.959,0,0,1-3.959,3.959A3.958,3.958,0,0,1,91.2-962.042Zm-42.223,1.98a1.98,1.98,0,0,1-1.98-1.98,1.979,1.979,0,0,1,1.98-1.979H79.987a1.979,1.979,0,0,1,1.979,1.979,1.979,1.979,0,0,1-1.979,1.98Z" transform="translate(77.029 984.472)" fill="#eeeef2"/>
      </g>
    </g>
    <g id="white-mockup-2" data-name="white-mockup" transform="translate(636.988 255.657)">
      <g id="phone-2" data-name="phone" transform="translate(0)">
        <g transform="matrix(1, 0, 0, 1, -636.99, -255.66)" filter="url(#body-2)">
          <path id="body-6" data-name="body" d="M42.223-416.313A39.584,39.584,0,0,1,2.639-455.9V-775.206A2.639,2.639,0,0,1,0-777.845V-813.47a2.639,2.639,0,0,1,2.639-2.639v-10.556A2.639,2.639,0,0,1,0-829.3v-35.625a2.639,2.639,0,0,1,2.639-2.639V-887.36A2.639,2.639,0,0,1,0-890v-15.834a2.639,2.639,0,0,1,2.639-2.639v-36.945A39.584,39.584,0,0,1,42.223-985H240.8a39.583,39.583,0,0,1,39.583,39.583v91.7a2.639,2.639,0,0,1,2.639,2.639V-791.7a2.639,2.639,0,0,1-2.639,2.639V-455.9A39.583,39.583,0,0,1,240.8-416.313Z" transform="translate(636.99 1240.66)" fill="#fff"/>
        </g>
        <path id="camera-2" data-name="camera" d="M91.2-962.042A3.958,3.958,0,0,1,95.16-966a3.958,3.958,0,0,1,3.959,3.958,3.959,3.959,0,0,1-3.959,3.959A3.958,3.958,0,0,1,91.2-962.042Zm-42.223,1.98a1.98,1.98,0,0,1-1.98-1.98,1.979,1.979,0,0,1,1.98-1.979H79.987a1.979,1.979,0,0,1,1.979,1.979,1.979,1.979,0,0,1-1.979,1.98Z" transform="translate(77.029 984.472)" fill="#eeeef2"/>
      </g>
    </g>
    <g id="white-mockup-3" data-name="white-mockup" transform="translate(999.988 255.657)">
      <g id="phone-3" data-name="phone" transform="translate(0)">
        <g transform="matrix(1, 0, 0, 1, -999.99, -255.66)" filter="url(#body-3)">
          <path id="body-7" data-name="body" d="M42.223-416.313A39.584,39.584,0,0,1,2.639-455.9V-775.206A2.639,2.639,0,0,1,0-777.845V-813.47a2.639,2.639,0,0,1,2.639-2.639v-10.556A2.639,2.639,0,0,1,0-829.3v-35.625a2.639,2.639,0,0,1,2.639-2.639V-887.36A2.639,2.639,0,0,1,0-890v-15.834a2.639,2.639,0,0,1,2.639-2.639v-36.945A39.584,39.584,0,0,1,42.223-985H240.8a39.583,39.583,0,0,1,39.583,39.583v91.7a2.639,2.639,0,0,1,2.639,2.639V-791.7a2.639,2.639,0,0,1-2.639,2.639V-455.9A39.583,39.583,0,0,1,240.8-416.313Z" transform="translate(999.99 1240.66)" fill="#fff"/>
        </g>
        <path id="camera-3" data-name="camera" d="M91.2-962.042A3.958,3.958,0,0,1,95.16-966a3.958,3.958,0,0,1,3.959,3.958,3.959,3.959,0,0,1-3.959,3.959A3.958,3.958,0,0,1,91.2-962.042Zm-42.223,1.98a1.98,1.98,0,0,1-1.98-1.98,1.979,1.979,0,0,1,1.98-1.979H79.987a1.979,1.979,0,0,1,1.979,1.979,1.979,1.979,0,0,1-1.979,1.98Z" transform="translate(77.029 984.472)" fill="#eeeef2"/>
      </g>
    </g>
    <g id="white-mockup-4" data-name="white-mockup" transform="translate(1362.988 255.657)">
      <g id="phone-4" data-name="phone" transform="translate(0)">
        <g transform="matrix(1, 0, 0, 1, -1362.99, -255.66)" filter="url(#body-4)">
          <path id="body-8" data-name="body" d="M42.223-416.313A39.584,39.584,0,0,1,2.639-455.9V-775.206A2.639,2.639,0,0,1,0-777.845V-813.47a2.639,2.639,0,0,1,2.639-2.639v-10.556A2.639,2.639,0,0,1,0-829.3v-35.625a2.639,2.639,0,0,1,2.639-2.639V-887.36A2.639,2.639,0,0,1,0-890v-15.834a2.639,2.639,0,0,1,2.639-2.639v-36.945A39.584,39.584,0,0,1,42.223-985H240.8a39.583,39.583,0,0,1,39.583,39.583v91.7a2.639,2.639,0,0,1,2.639,2.639V-791.7a2.639,2.639,0,0,1-2.639,2.639V-455.9A39.583,39.583,0,0,1,240.8-416.313Z" transform="translate(1362.99 1240.66)" fill="#fff"/>
        </g>
        <path id="camera-4" data-name="camera" d="M91.2-962.042A3.958,3.958,0,0,1,95.16-966a3.958,3.958,0,0,1,3.959,3.958,3.959,3.959,0,0,1-3.959,3.959A3.958,3.958,0,0,1,91.2-962.042Zm-42.223,1.98a1.98,1.98,0,0,1-1.98-1.98,1.979,1.979,0,0,1,1.98-1.979H79.987a1.979,1.979,0,0,1,1.979,1.979,1.979,1.979,0,0,1-1.979,1.98Z" transform="translate(77.029 984.472)" fill="#eeeef2"/>
      </g>
    </g>
  </g>
</svg>
